<svg xmlns="http://www.w3.org/2000/svg" viewBox="0 0 316.824 316.824">
  <path style='fill:#bbb' d="M213.31 185.877l-.81-.366c-1.934-.88-3.882-1.71-5.868-2.487-2.166-.868-4.364-1.671-6.594-2.423-1.761-.578-3.535-1.118-5.328-1.645-2.731-.79-5.489-1.504-8.329-2.134-.964-.199-1.947-.392-2.924-.566l-.668-.129c-1.677-.328-3.361-.617-5.064-.868l-.488-.077c-.019 0-.032-.013-.051-.013l-.488-.064c-1.414-.212-2.821-.411-4.287-.578l-4.987-.411c-6.131-.405-12.449-.392-18.509.051l-1.767.148-.823.064-2.063.186c-1.896.199-3.779.463-5.662.765l-.553.077c-1.285.212-2.571.45-3.837.688-1.407.251-2.796.527-4.184.829-2.686.604-5.354 1.292-7.937 2.044-2.057.591-4.087 1.24-5.996 1.896l-1.324.476c-4.049 1.433-8.072 3.078-11.967 4.884l-1.041.495-.019.026c-45.547 21.8-74.918 68.247-74.918 118.646 0 1.157.077 2.294.148 3.438l.341 7.995H289.5l.353-7.905c.077-1.17.148-2.333.148-3.528 0-51.203-30.084-98.061-76.691-119.514zM39.682 303.97c.553-45.251 27.308-86.762 68.086-105.882l1.311-.514.154-.148c3.194-1.459 6.491-2.789 9.833-3.965l1.06-.379c1.819-.63 3.631-1.208 5.514-1.742 2.346-.688 4.737-1.305 7.134-1.844 1.24-.263 2.481-.514 3.76-.752 1.015-.186 2.024-.379 3.046-.54l.501-.09c1.838-.289 3.683-.553 5.521-.752l4.203-.366c5.501-.405 10.765-.463 17.14 0l4.087.341c1.009.116 2.018.251 3.246.424l1.472.212c1.536.225 3.072.488 4.614.778l.72.135c.868.161 1.729.328 2.545.501 2.532.553 5.019 1.208 7.487 1.922 1.632.476 3.252.964 4.833 1.491 2.005.668 3.985 1.395 5.945 2.172 1.883.739 3.74 1.53 5.578 2.372l.321.148c41.704 19.133 68.786 60.779 69.339 106.467H39.682v.011zm86.962-146.371c.964.405 1.96.758 2.956 1.112l2.089.758c.803.308 1.613.611 2.436.868 7.661 2.41 15.675 3.65 23.824 3.715l.649.013c2.796 0 5.598-.148 8.284-.424.925-.09 1.825-.238 2.731-.392l2.012-.302c1.131-.148 2.262-.315 3.445-.546.81-.167 1.594-.379 2.378-.591l2.198-.559c1.086-.263 2.172-.527 3.246-.861.668-.212 1.324-.456 1.973-.701l1.767-.636c1.26-.437 2.532-.887 3.805-1.42.495-.212.977-.443 1.452-.675l.572-.283c1.742-.778 3.477-1.575 5.199-2.5l1.118-.668c1.928-1.093 3.85-2.224 5.797-3.554 1.009-.681 1.973-1.446 2.924-2.204l3.291-2.558c18.921-15.662 29.795-38.645 29.795-62.482l.039-.681c0-45.232-36.8-82.026-82.032-82.026-43.175 0-79.095 33.76-81.775 76.859l-.071 1.067c-.103 1.356-.186 2.712-.186 4.1-.013 33.038 19.647 62.698 50.084 75.571zm-37.083-78.78l.077-1.157c2.262-36.344 32.545-64.808 68.947-64.808 38.15 0 69.178 31.029 69.211 68.587l-.039.675c-.026 20.579-9.203 39.956-25.238 53.266l-3.053 2.327c-.681.553-1.369 1.105-2.224 1.697-1.542 1.048-3.175 1.992-4.833 2.931l-.919.559c-1.388.746-2.847 1.407-4.364 2.082l-1.703.823c-.977.405-2.005.758-3.021 1.112l-2.121.765c-.411.154-.829.321-1.234.443-.79.244-1.6.431-2.404.63l-2.564.656c-.553.148-1.099.302-1.587.405-.855.167-1.729.283-2.596.405l-2.442.366c-.591.103-1.183.206-1.845.27-2.14.225-4.293.347-6.478.366l-.604-.006h-.013c-7.037-.006-13.946-1.054-20.553-3.123-.572-.18-1.131-.405-1.69-.617l-2.416-.88c-.752-.264-1.497-.521-2.217-.823C105.982 134.919 89.4 109.892 89.4 82.032c0-1.086.084-2.153.161-3.213z"/>
</svg>
