<?xml version="1.0" encoding="UTF-8" standalone="no"?>
<svg id="azvirLogo" style="enable-background:new 0 0 400 400" xmlns="http://www.w3.org/2000/svg" xml:space="preserve" viewBox="0 0 400 400" version="1.1" y="0px" x="0px" xmlns:xlink="http://www.w3.org/1999/xlink">
<style type="text/css">
	.st0{fill:#208085;}
	.st1{fill:#00C0C7;}
	.st2{fill:#10A0A7;}
</style>
	<path class="st0" d="m202.6 0c25.5 0 46.2 20.7 46.2 46.2s-20.7 46.2-46.2 46.2-46.2-20.7-46.2-46.2c0-25.5 20.6-46.2 46.2-46.2z"/>
			<path class="st1" d="m86 138.2c58.2 41.4 82.4 151.6 72 260.2-0.2 2-3.2 2.1-3.4 0.1-7.5-91.7-45-196.4-154.5-234 1.6-0.4 83.1-25.4 85.9-26.3z"/>
			<path class="st2" d="m125.2 122.4c46.7 55.3 65.8 165.8 32.5 276.4-0.6 1.9-3.5 1.5-3.4-0.5 4.4-97.8-6.9-205-119-271.8 1.8 0 86.9-4 89.9-4.1z"/>
			<path class="st0" d="m168.5 104.3c32.4 64.7 48.4 191.7-10.9 294.8-1 1.7-3.7 0.7-3.2-1.2 25.3-92.2 19.2-219.4-74.2-310.6 1.7 0.4 85.4 16.4 88.3 17z"/>
			<path class="st1" d="m314 138.2c-58.2 41.4-82.4 151.6-72 260.2 0.2 2 3.2 2.1 3.4 0.1 7.5-91.7 45-196.4 154.5-234-1.6-0.4-83.1-25.4-85.9-26.3z"/>
			<path class="st2" d="m274.8 122.4c-46.7 55.3-65.8 165.8-32.5 276.4 0.6 1.9 3.5 1.5 3.4-0.5-4.4-97.8 6.9-205 119-271.8-1.8 0-86.9-4-89.9-4.1z"/>
			<path class="st0" d="m231.5 104.3c-32.4 64.7-48.3 191.7 11 294.8 1 1.7 3.7 0.7 3.2-1.2-25.3-92.2-19.2-219.4 74.2-310.6-1.8 0.4-85.5 16.4-88.4 17z"/>
</svg>
