<?xml version="1.0" encoding="utf-8"?>
<svg version="1.1" xmlns="http://www.w3.org/2000/svg" xmlns:xlink="http://www.w3.org/1999/xlink" x="0px" y="0px" viewBox="0 0 63 63" style="enable-background:new 0 0 63 63;" xml:space="preserve">

	<path id="path-1_34_" style="fill:#81BDA4;" d="M5,10.485H1.5c-0.829,0-1.5-0.672-1.5-1.501c0-0.829,0.671-1.501,1.5-1.501h2
		V4.481C3.5,3.651,4.171,2.98,5,2.98s1.5,0.671,1.5,1.501v4.503C6.5,9.813,5.829,10.485,5,10.485z"/>
	<path id="path-2_33_" style="fill:#81BDA4;" d="M61.5,10.485H57c-0.829,0-1.5-0.672-1.5-1.501V4.481c0-0.83,0.671-1.501,1.5-1.501
		s1.5,0.671,1.5,1.501v3.002h3c0.829,0,1.5,0.672,1.5,1.501C63,9.813,62.329,10.485,61.5,10.485z"/>
	<path id="path-3_32_" style="fill:#81BDA4;" d="M57,60.02c-0.829,0-1.5-0.672-1.5-1.501v-3.503c0-0.829,0.671-1.501,1.5-1.501h4.5
		c0.829,0,1.5,0.672,1.5,1.501c0,0.829-0.671,1.501-1.5,1.501h-3v2.002C58.5,59.348,57.829,60.02,57,60.02z"/>
	<path id="path-4_28_" style="fill:#81BDA4;" d="M5,60.02c-0.829,0-1.5-0.672-1.5-1.501v-2.002h-2c-0.829,0-1.5-0.672-1.5-1.501
		c0-0.829,0.671-1.501,1.5-1.501H5c0.829,0,1.5,0.672,1.5,1.501v3.503C6.5,59.348,5.829,60.02,5,60.02z"/>
	<path id="path-5_28_" style="fill:#E56A77;" d="M47.001,57.518C47,57.518,47,57.518,47.001,57.518h-2.43
		c-0.828,0-1.5-0.672-1.5-1.501s0.672-1.501,1.5-1.501H47c0,0,0,0,0.001,0c0.703,0,1.393-0.111,2.053-0.331
		c0.785-0.261,1.635,0.164,1.896,0.951c0.261,0.787-0.164,1.637-0.95,1.898C49.035,57.355,48.026,57.518,47.001,57.518z
		 M39.571,57.518h-5c-0.828,0-1.5-0.672-1.5-1.501s0.672-1.501,1.5-1.501h5c0.829,0,1.5,0.672,1.5,1.501S40.4,57.518,39.571,57.518
		z M29.571,57.518h-5c-0.828,0-1.5-0.672-1.5-1.501s0.672-1.501,1.5-1.501h5c0.829,0,1.5,0.672,1.5,1.501
		S30.4,57.518,29.571,57.518z M19.571,57.518H15c-0.17,0-0.339-0.004-0.507-0.013c-0.827-0.043-1.463-0.75-1.42-1.578
		c0.044-0.828,0.758-1.466,1.577-1.42c0.116,0.006,0.233,0.009,0.35,0.009h4.571c0.829,0,1.5,0.672,1.5,1.501
		S20.4,57.518,19.571,57.518z M9.979,55.746c-0.331,0-0.664-0.109-0.941-0.333c-1.566-1.264-2.674-2.955-3.202-4.888
		c-0.219-0.799,0.252-1.625,1.051-1.843c0.799-0.219,1.624,0.251,1.842,1.051c0.362,1.321,1.12,2.478,2.193,3.344
		c0.644,0.52,0.745,1.465,0.225,2.11C10.851,55.555,10.417,55.746,9.979,55.746z M53.488,54.195c-0.304,0-0.611-0.092-0.877-0.284
		c-0.671-0.486-0.822-1.424-0.337-2.096c0.802-1.111,1.226-2.427,1.226-3.804c0-0.829,0.671-1.501,1.5-1.501s1.5,0.672,1.5,1.501
		c0,2.013-0.621,3.935-1.794,5.562C54.413,53.979,53.954,54.195,53.488,54.195z M7,46.653c-0.829,0-1.5-0.672-1.5-1.501v-5.004
		c0-0.829,0.671-1.501,1.5-1.501s1.5,0.672,1.5,1.501v5.004C8.5,45.981,7.829,46.653,7,46.653z M55,46.225
		c-0.829,0-1.5-0.672-1.5-1.501V39.72c0-0.828,0.671-1.501,1.5-1.501s1.5,0.673,1.5,1.501v5.004
		C56.5,45.553,55.829,46.225,55,46.225z M7,36.645c-0.829,0-1.5-0.671-1.5-1.501v-5.003c0-0.829,0.671-1.501,1.5-1.501
		s1.5,0.672,1.5,1.501v5.003C8.5,35.974,7.829,36.645,7,36.645z M55,36.218c-0.829,0-1.5-0.672-1.5-1.501v-5.004
		c0-0.828,0.671-1.501,1.5-1.501s1.5,0.673,1.5,1.501v5.004C56.5,35.546,55.829,36.218,55,36.218z M7,26.638
		c-0.829,0-1.5-0.671-1.5-1.501v-5.003c0-0.829,0.671-1.501,1.5-1.501s1.5,0.672,1.5,1.501v5.003C8.5,25.967,7.829,26.638,7,26.638
		z M55,26.211c-0.829,0-1.5-0.672-1.5-1.501v-5.004c0-0.828,0.671-1.501,1.5-1.501s1.5,0.673,1.5,1.501v5.004
		C56.5,25.539,55.829,26.211,55,26.211z M7.047,16.634c-0.053,0-0.107-0.003-0.161-0.009c-0.824-0.087-1.42-0.827-1.333-1.652
		c0.212-1.995,1.035-3.842,2.38-5.338c0.553-0.617,1.502-0.667,2.118-0.113c0.616,0.554,0.667,1.503,0.113,2.12
		c-0.92,1.024-1.483,2.286-1.627,3.649C8.455,16.062,7.804,16.634,7.047,16.634z M54.896,16.21c-0.724,0-1.361-0.525-1.479-1.263
		c-0.217-1.352-0.847-2.583-1.82-3.557c-0.586-0.587-0.586-1.537,0-2.123c0.586-0.586,1.536-0.586,2.121,0
		c1.423,1.425,2.343,3.224,2.661,5.204c0.131,0.818-0.425,1.589-1.243,1.72C55.055,16.204,54.975,16.21,54.896,16.21z
		 M13.299,9.666c-0.691,0-1.313-0.481-1.465-1.184c-0.175-0.811,0.339-1.61,1.149-1.785c0.66-0.143,1.338-0.215,2.017-0.215h3.286
		c0.829,0,1.5,0.672,1.5,1.501s-0.671,1.501-1.5,1.501H15c-0.466,0-0.931,0.05-1.382,0.147C13.511,9.654,13.404,9.666,13.299,9.666
		z M48.283,9.586c-0.079,0-0.16-0.006-0.24-0.019C47.701,9.512,47.35,9.484,47,9.484h-3.714c-0.829,0-1.5-0.672-1.5-1.501
		s0.671-1.501,1.5-1.501H47c0.509,0,1.02,0.041,1.518,0.121c0.819,0.132,1.375,0.902,1.244,1.72
		C49.643,9.061,49.006,9.586,48.283,9.586z M38.286,9.484h-5c-0.828,0-1.5-0.672-1.5-1.501s0.672-1.501,1.5-1.501h5
		c0.829,0,1.5,0.672,1.5,1.501S39.115,9.484,38.286,9.484z M28.286,9.484h-5c-0.829,0-1.5-0.672-1.5-1.501s0.671-1.501,1.5-1.501h5
		c0.829,0,1.5,0.672,1.5,1.501S29.115,9.484,28.286,9.484z"/>
</svg>
