<?xml version="1.0" encoding="UTF-8" standalone="no"?>
<svg id="ermileLogo" style="enable-background:new 0 0 360 400" xmlns="http://www.w3.org/2000/svg" xml:space="preserve" viewBox="0 0 360 400" version="1.1" y="0px" x="0px" xmlns:xlink="http://www.w3.org/1999/xlink">
<style type="text/css">
	.st0{display:none;}
	.st1{display:inline;}
	.st2{fill:#16A8AD;}
	.st3{fill:#339DA0;}
	.st4{fill:#5CC6CF;}
	.st5{fill:#1C8184;}
	.st6{fill:#25B2B7;}
	.st7{fill:#0D898D;}
	.st8{fill:#15999D;}
	.st9{fill:#38C0C5;}
	.st10{fill:#10A1A6;}
	.st11{fill:#38C0C9;}
	.st12{fill:#CC1030;}
</style>
<g class="st0">
	<path class="st1" d="m13.5 90.8c-0.4 0.5-0.8 1.2-1.1 2-0.3 0.7-0.5 1.5-0.7 2.6s-0.3 2.3-0.3 3.8c0 0.9 0.1 1.7 0.4 2.4s0.6 1.4 1 1.9c0.4 0.6 0.9 1 1.4 1.4s1.1 0.7 1.6 1 1.1 0.5 1.6 0.6 1 0.2 1.4 0.2c0.6 0 1.3 0 2-0.1s1.5-0.2 2.2-0.5c0.7-0.2 1.4-0.5 2.1-0.9s1.3-0.9 1.8-1.5 0.9-1.3 1.2-2.2 0.5-1.8 0.5-3v-3.8s-0.1-3-0.1-4.7-0.1-3.4-0.2-5.2c-0.1-1.8-0.1-3.5-0.2-5.2-0.1-4-0.3-8.2-0.5-12.6l3.9-0.2c0.1 2.4 0.2 4.9 0.3 7.4 0 1.1 0.1 2.2 0.1 3.4 0.1 1.2 0.1 2.5 0.1 3.7 0 1.3 0.1 2.6 0.1 3.9s0.1 2.6 0.1 3.8c0.1 0.8 0.2 1.6 0.6 2.2 0.1 0.3 0.3 0.6 0.5 0.8 0.2 0.3 0.4 0.5 0.7 0.7s0.6 0.4 1 0.5 0.8 0.2 1.3 0.2c0.3 0 0.5 0.1 0.8 0.2 0.2 0.1 0.5 0.3 0.6 0.4 0.2 0.2 0.3 0.4 0.4 0.6s0.1 0.5 0.1 0.8c0 0.6-0.2 1-0.6 1.4s-0.8 0.5-1.4 0.5c-0.5 0-0.9 0-1.3-0.1-0.4 0-0.7-0.1-1-0.2s-0.6-0.2-0.9-0.3c-0.3-0.1-0.5-0.2-0.8-0.4v1s0 0.6 0 0.9c0 1.7-0.2 3.1-0.6 4.4-0.4 1.2-1 2.3-1.7 3.2s-1.5 1.6-2.4 2.2-1.9 1-2.9 1.4c-1 0.3-2 0.6-3.1 0.7-1 0.1-2 0.2-2.9 0.2s-1.8-0.1-2.7-0.3c-0.9-0.2-1.8-0.5-2.6-0.9s-1.6-0.9-2.4-1.5c-0.7-0.6-1.4-1.4-1.9-2.2s-1-1.8-1.3-2.9-0.5-2.3-0.5-3.6c0-1.9 0.1-3.4 0.4-4.7s0.6-2.4 0.9-3.2c0.4-1 0.8-1.8 1.3-2.5l3.7 2.3z"/>
	<path class="st1" d="m33.3 95.6c0-0.6 0.2-1 0.6-1.4s0.8-0.6 1.4-0.6h2.2 1.5s1.1 0 1.7-0.1 1.1-0.1 1.6-0.2 1-0.2 1.5-0.4c0.5-0.2 0.9-0.4 1.2-0.7s0.6-0.6 0.8-1c0.3-0.6 0.3-1.4 0.2-2.5s-0.4-2.3-0.8-3.7c-0.1-0.4-0.3-0.9-0.5-1.4s-0.4-1-0.6-1.4c-0.2-0.5-0.4-1-0.7-1.5l3.6-1.8s0.1 0.1 0.2 0.4 0.3 0.6 0.5 1 0.4 1 0.6 1.5c0.2 0.6 0.4 1.2 0.6 1.9 1.2 3.8 1.4 6.8 0.5 9-0.9 2.1-2.6 3.6-5 4.2-0.4 0.1-0.8 0.2-1.4 0.3s-1.1 0.1-1.7 0.1-1.1 0-1.7 0.1-0.9 0-1.2 0h-3.1c-0.5 0-1-0.2-1.4-0.6-0.4-0.2-0.6-0.6-0.6-1.2zm9.7 8.9l-3.2 3.2-3.3-3.3 3.2-3.3 3.3 3.4zm8.2 0l-3.2 3.3-3.3-3.3 3.2-3.2 3.3 3.2z"/>
	<path class="st1" d="m66.2 97.6c-1.5 0-2.7-0.2-3.8-0.5-1-0.3-1.9-0.9-2.6-1.6-0.4-0.4-0.8-0.9-1-1.4s-0.4-1-0.5-1.5-0.2-1-0.2-1.4 0-0.8 0-1.1v-0.4-0.7-1.9s0-1.7 0-2.8 0-2.2 0-3.3v-3.6c0-1.2-0.1-2.4-0.1-3.6-0.1-1.2-0.1-2.2-0.2-3.2s-0.2-1.8-0.3-2.4l3.9-0.7c0.1 0.7 0.2 1.5 0.3 2.5s0.2 2.1 0.2 3.2 0.1 2.4 0.1 3.6v3.7s0 2.3 0 3.4 0 2 0 2.9 0 1.5 0 2.1v1 0.1c0 0.6 0 1.1 0.1 1.6s0.2 0.8 0.5 1.1c0.6 0.6 1.7 0.9 3.4 1h0.2c0.3 0 0.5 0.1 0.8 0.2 0.2 0.1 0.5 0.3 0.6 0.4 0.2 0.2 0.3 0.4 0.4 0.6s0.2 0.5 0.2 0.8c0 0.6-0.2 1-0.6 1.4-0.4 0.3-0.8 0.5-1.4 0.5z"/>
	<path class="st1" d="m64.2 95.6c0-0.5 0.2-1 0.6-1.4s0.8-0.6 1.4-0.6c1.1 0 2.1-0.2 2.8-0.6 0.8-0.4 1.4-0.9 2-1.5s1.1-1.3 1.5-2.1c0.4-0.8 0.8-1.6 1.3-2.4 0.3-0.7 0.7-1.4 1-2.1s0.7-1.3 1.2-1.8c1.2-1.5 2.7-2.2 4.4-2.2 2 0 3.7 0.8 5 2.4 1.1 1.3 1.7 2.9 1.9 4.8 0.1 0.9 0.2 1.8 0.1 2.7s-0.3 1.7-0.6 2.5c-0.4 1-0.9 1.8-1.5 2.4s-1.4 1-2.2 1.3c-1.5 0.4-3.2 0.2-5.1-0.5-1.3-0.5-2.6-1.3-4.1-2.3l-0.2 0.2c-2 2.1-4.5 3.1-7.6 3.1-0.5 0-1-0.2-1.4-0.6-0.3-0.3-0.5-0.7-0.5-1.3zm12-4.5c1.2 0.9 2.3 1.5 3.3 1.9s1.8 0.5 2.5 0.3c0.2-0.1 0.4-0.2 0.7-0.5 0.2-0.3 0.4-0.6 0.5-1 0.2-0.4 0.3-0.9 0.3-1.4s0-1.1 0-1.7c0-0.1 0-0.3-0.1-0.5s-0.1-0.5-0.2-0.8-0.2-0.6-0.4-0.9c-0.2-0.3-0.4-0.6-0.6-0.8s-0.5-0.5-0.8-0.6c-0.3-0.2-0.7-0.2-1.1-0.2-0.3 0-0.5 0.1-0.8 0.2-0.2 0.2-0.5 0.4-0.7 0.7s-0.5 0.7-0.7 1.2c-0.3 0.5-0.6 1-0.9 1.7l-1 2.4z"/>
	<path class="st1" d="m99.3 84.6c0.4 1.2 0.7 2.5 1.1 3.7 0.1 0.5 0.3 1.1 0.4 1.6 0.1 0.6 0.3 1.1 0.4 1.7s0.2 1.1 0.3 1.6c0.1 0.5 0.2 1 0.2 1.5v0.5s0 0.4 0 0.6c0 1.2-0.2 2.3-0.5 3.4s-0.8 2.1-1.4 3.1-1.3 2-2.2 2.9c-0.8 0.9-1.7 1.8-2.7 2.6s-2 1.6-3.1 2.3c-1.1 0.7-2.2 1.3-3.3 1.9l-1.7-3.5c1.4-0.7 2.8-1.5 4.1-2.4s2.5-1.9 3.5-3 1.9-2.2 2.5-3.4c0.6-1.2 0.9-2.5 0.9-3.8v-0.3s0-0.3 0-0.5c0-0.4-0.1-0.9-0.2-1.4s-0.2-1-0.3-1.5c-0.1-0.5-0.2-1-0.4-1.5-0.1-0.5-0.3-1-0.4-1.5-0.3-1.1-0.7-2.2-1-3.4l3.8-1.2z"/>
	<path class="st1" d="m111.6 66c0.6 5.4 0.9 10.3 1 14.6 0.1 7.1 0 12.8-0.3 17.2l-3.9-0.2c0.4-5.9 0.6-10.9 0.4-14.9-0.3-6.5-0.6-11.8-1.1-16l3.9-0.7z"/>
</g>
	<path class="st2" d="m183.4 31.7c26.7 2.8 53.2 14.1 76.9 32.4 3.1 2.4 7.5 0.1 7.4-3.8l-0.6-14c-0.1-1.4-0.8-2.7-1.9-3.5-27.1-19.1-58-30.7-90.2-31.8-2.5-0.1-4.6 1.9-4.7 4.4l-0.3 6.8-0.1 2.2c-0.2 3.6 2.7 6.7 6.3 6.9 2.7 0.1 5.7 0.3 7.2 0.4z"/>
	<path class="st2" d="m73.7 240.3c0-12.2 2.5-24.3 7.5-36 1.3-3.1-0.9-6.5-4.3-6.4l-11.8 0.3c-1.9 0-3.5 1.2-4.2 3-4.7 12.5-7.2 25.6-7.2 39.1 0 20.5 4.1 40 11.5 57.7 0.7 1.6 2.2 2.7 4 2.8l12.1 0.5c3.4 0.1 5.8-3.4 4.3-6.5-7.8-16.9-11.9-35.4-11.9-54.5z"/>
	<path class="st3" d="m292.8 96.2c16.6 20.4 28.3 45.7 35 75.1 0.8 3.4 1.5 6.8 2.1 10.1 0.4 2.2 2.4 3.8 4.6 3.8l10.9-0.2c2.8-0.1 4.9-2.6 4.4-5.4-5-29.1-15.7-61.1-36.2-89-0.9-1.2-2.3-1.9-3.7-1.9h-13.6c-3.8 0-5.9 4.5-3.5 7.5z"/>
	<path class="st2" d="m333.1 238.8c-1.7 22.9-8.1 44.7-18.7 63.8-2.1 3.8 0.6 8.5 4.9 8.7l9.1 0.4c2.3 0.1 4.4-1.2 5.5-3.2 10.6-20.5 17.3-43.7 19.1-68.2 0.9-11.9 0.9-26.7-0.8-43-0.3-3.1-2.9-5.4-6-5.3l-8.2 0.2c-3.5 0.1-6.1 3.1-5.7 6.5 1.9 17.5 1.4 31.7 0.8 40.1z"/>
	<path class="st4" d="m85.7 190.7c1.5 0 2.9-0.8 3.8-2.1 7.6-11.9 17.7-22.8 30.1-32.3 21.7-16.7 34.9-39.7 37.5-62.5 0.3-2.7-1.8-5.1-4.5-5.1h-11c-2.3 0-4.2 1.7-4.5 3.9-2.1 16.4-11.7 34.1-29.6 47.8-16.2 12.5-29.4 27.4-38.7 43.9-1.7 3.1 0.6 6.8 4.1 6.8l12.8-0.4z"/>
	<path class="st5" d="m311.8 318c-4.2-0.2-8.3 1.6-10.9 4.9-2.6 3.2-5.3 6.3-8.2 9.3-1.2 1.2-2.3 2.4-3.5 3.5-1.7 1.6-2.6 3.9-2.5 6.2l0.4 8.6c0.2 5.3 6.5 8 10.6 4.5 9.1-7.8 17.2-16.8 24.3-26.7 3-4.1 0.2-9.9-4.9-10.1l-5.3-0.2z"/>
	<path class="st6" d="m280.1 353.9c-0.2-4.3-5-6.7-8.5-4.3-6 4-12.2 7.4-18.8 10.2-15.4 6.7-32.1 10.1-49.4 10.1-14.1 0-27.9-2.2-40.9-6.5-3.5-1.1-7 1.3-7.2 5l-0.4 9.3c-0.1 2.5 1.5 4.7 3.9 5.5 14.1 4.4 29.1 6.8 44.6 6.8 27.7 0 52.9-7.6 74.5-20.7 1.7-1 2.7-2.9 2.7-4.9l-0.5-10.5z"/>
	<path class="st7" d="m96 44.8h0.3c23.6 0 37.7 14.3 40.6 33.1 0.3 2.2 2.3 3.8 4.5 3.8h11c2.8 0 4.9-2.5 4.5-5.2-0.6-4.2-1.5-8.3-2.9-12.3-2.6-7.7-6.6-14.5-11.8-20.1-3.4-3.7-1.5-9.6 3.4-10.6 4.3-0.8 8.5-1.5 12.8-1.9 2.3-0.2 4-2.1 4.1-4.3l0.5-11c0.1-2.7-2.2-5-4.9-4.7-21.6 1.8-43.7 8.5-65.5 21.1-5.7 3.3-3.3 12.1 3.4 12.1z"/>
	<path class="st8" d="m148.6 361c0.1-1.8-0.9-3.5-2.5-4.3-12.6-6.2-24.2-14.5-34.5-24.7-6.5-6.5-12.3-13.7-17.2-21.2-0.8-1.2-2.2-2-3.6-2.1l-13.1-0.5c-3.6-0.2-5.9 3.7-4.2 6.8 15.6 27.1 39.4 48.8 68.1 61.8 3 1.3 6.3-0.7 6.5-4l0.5-11.8z"/>
	<path class="st7" d="m276.8 78.6c2 2 4.7 3.1 7.5 3.1h15c2.9 0 4.5-3.4 2.6-5.6-6.4-7.2-13.2-14-20.3-20.2-2.8-2.4-7.1-0.3-7 3.4l0.7 16c0 1.2 0.6 2.4 1.5 3.3z"/>
	<path class="st7" d="m156 184.5l0.8-19.2c0.1-3.1-3.7-4.8-5.8-2.5-4.7 5-9.9 9.7-15.5 14l-6.5 5c-3.3 2.6-1.5 7.9 2.8 7.8l19.4-0.4c2.6 0 4.7-2.1 4.8-4.7z"/>
	<path class="st9" d="m284.2 284.8c0.2 5 6.9 6.5 9.2 2.1 7.8-15 12.6-32.1 13.9-50 0.6-7.9 1-21.7-1.1-38.7-0.4-3.1-3-5.4-6.1-5.3l-13.6 0.3c-3.4 0.1-6 2.9-5.9 6.3l3.6 85.3z"/>
	<path class="st2" d="m168.4 219.6c5.4-4.2 10.6-8.6 15.4-13.3 4.1-3.9 1.2-10.8-4.4-10.7l-5.6 0.1c-6.3 0.1-11.4 5.2-11.7 11.5l-0.4 10.1c-0.1 3.1 3.4 4.9 5.8 3l0.9-0.7z"/>
	<path class="st2" d="m302.5 177c-4.4-19.5-11.3-36.8-20.6-51.6-1.3-2-4.5-1-4.3 1.4l2.2 52.8c0.2 3.8 3.3 6.7 7.1 6.7l13.3-0.3c2.2 0 3.8-2.1 3.4-4.2-0.5-1.6-0.8-3.2-1.1-4.8z"/>
	<path class="st10" d="m171.2 188.8l20.2-0.4c5.8-0.1 11.2-3.1 14.3-8 1.1-1.8 2.4-3.7 3.6-5.8 8.6-13.8 29.1-12.6 35.8 2.2 0.8 1.8 1.5 3.4 2.1 4.9 1.3 3.2 4.5 5.3 8 5.2 3.3-0.1 7.3-0.2 10.7-0.2 3.7-0.1 6.7-3.2 6.5-7l-2.3-54.5c-0.5-11.2-5.2-21.9-13.4-29.6l-0.2-0.2c-4.5-4.3-10.6-6.8-16.8-6.8h-49.7c-3.8 0-6.9 2.9-7.3 6.6-1.6 16.3-7.3 36.6-16.5 51.4-1.2 2-1.9 4.2-2 6.6l-1.3 27.4c0.1 4.6 3.8 8.3 8.3 8.2z"/>
	<path class="st5" d="m267.2 309.1c6 0.3 10.8-4.6 10.6-10.6l-0.4-9.2-3.7-87.7c-0.2-4.4-3.9-7.9-8.3-7.8l-6.3 0.2c-3.2 0.1-5.7 3-5.2 6.2 1.7 17.2 1.2 23 0.6 31.3-1.2 17-9.2 31.2-19.5 41.8-8.9 9.2-19 14.9-31.6 14.9-16.5 0-31.2-8.1-40.3-20.6-1.1-1.6-3.6-0.8-3.7 1.1l-1.1 27.8c-0.2 4.5 3.3 8.3 7.8 8.5l90.9 3.8 10.2 0.3z"/>
	<path class="st7" d="m140.8 310.8h-1c-4.7-0.2-6.9 5.6-3.4 8.7 2.2 1.8 4.4 3.6 6.7 5.2 2.9 2.1 7.1 0.1 7.2-3.5 0.2-5.6-4-10.2-9.5-10.4z"/>
	<path class="st11" d="m157.4 318.3l-0.2 5.8c-0.2 5.5 3.1 10.7 8.2 12.7 11.8 4.6 24.6 7.2 38 7.2 26.9 0 46.9-10 60.6-20.9 2.9-2.3 1.4-7-2.4-7.2l-97.1-4.1c-3.8-0.2-6.9 2.7-7.1 6.5z"/>
	<path class="st2" d="m153.7 240.9v-0.6c0-0.4 0-0.7 0.1-1.1l1.5-35.2c0.2-4.2-3.2-7.7-7.4-7.6l-25.4 0.5c-4.8 0.1-9.2 2.6-11.7 6.6-0.8 1.3-1.6 2.7-2.4 4.1-5.8 10.6-8.8 21.6-8.8 32.7 0 18.9 5.1 36.7 14 52 3.9 6.7 10.9 10.8 18.6 11.2l12.8 0.5c3.3 0.1 6.1-2.4 6.2-5.7l2.5-57.4z"/>
	<path class="st2" d="m189.3 81.7h45.1c1.8 0 2.5-2.4 1-3.4-11.4-7.6-23.3-13.3-35.4-16.9-9.2-2.7-18.1 4.8-17 14.3v0.2c0.4 3.3 3.1 5.8 6.3 5.8z"/>
	<path class="st12" d="m244.8 245.8c-1.1 2-3.8 3.3-5.6 5.1-0.7 1.3-1.4 2.6-2.1 4l-3.5 2.1c-1.3 1.3-2.5 2.6-3.8 3.9-1.3 1.1-2.5 0.8-3.7 1.2-3.2 1.3-6.2 3.7-8.8 4.8-1.3 0.7-2.6 1.5-4 2.2-12.4 4.6-24.8 6.3-36.8 8.6-2-1.6-1.2-2.8-0.5-4.7 1.6-0.4 5.2-1.6 6.1-2.9 0.5-0.7 0.5-1.2 0.5-2l-2.7-2.2c0.2-1.1 0.2-1.7 1.5-2.6 3.1-0.6 6.2-1 9.1-0.9 1.5 0.1 3.3 1.6 4.8 1.2 3-0.8 7.2-4.7 8.9-6.3 3.5-3.3 6.4-4.6 8.5-7.9 1.5-2.4 0.6-6.1 2-8.3 1.5-2.3 2-5.1 1.9-7.9-0.1-1.9 1.1-2.2 2.2-3.8 1.6-2.2 2.1-6.6-0.2-9-5-4.1-4.7-12.3-4.3-13.8 0.1-1.6-0.5-3-0.6-4.6-0.1-1.1-1.1-3.6 0.4-5.5 0.4-0.7 0.5-1.3 0.5-2.2-1.1-0.6-1.8-0.5-2.8-2.1 0.1-1.3 0.3-2.7 0.4-4 0.7-1.7 2.7-2.7 2.9-4.5 0.2-1.7-1.3-2.5-0.2-4.1 2.9 0.1 2.1-2.3 5.2-3.5 4.9-2 8.2 0.1 12.4 1.6 1.2 0.2 2.3 0.4 3.5 0.5 1.6 1.3 0.1 6.7 3.4 9.9 2.2 2.1 8 0.7 9.5 5.4 0.9 2.9-1.4 6.6-1.3 9.4 1 3.3 2 6.5 3 9.8 0 1.7-2.3 4-0.6 6 3.6 4.4-6.5 29.5-5.2 27.1z"/>
</svg>
