<svg xmlns="http://www.w3.org/2000/svg" xmlns:xlink="http://www.w3.org/1999/xlink" viewBox="0 0 157.18 157.18">
  <defs>
    <style>
		.a{fill:url(#a)}
		.b{fill:url(#b)}
		.c{fill:url(#c)}
		.d{fill:url(#d)}
		.e{fill:url(#e)}
		.f{fill:url(#f)}
		.g{fill:url(#g)}
		.h{fill:url(#h)}
		.i{fill:url(#i)}
		.j{fill:url(#j)}
		.k{fill:#ffda44}
    </style>
    <radialGradient id="a" cx="110.94" cy="26.42" r="167.87" gradientUnits="userSpaceOnUse">
      <stop offset="0.15" stop-color="#353530"/>
      <stop offset="0.46" stop-color="#20201d"/>
      <stop offset="1"/>
    </radialGradient>
    <linearGradient id="b" x1="130.31" y1="16" x2="24.12" y2="144.51" gradientUnits="userSpaceOnUse">
      <stop offset="0" stop-color="#f4de8b"/>
      <stop offset="0.46" stop-color="#cfad56"/>
      <stop offset="1" stop-color="#a1812e"/>
    </linearGradient>
    <linearGradient id="c" x1="168.78" y1="47.78" x2="62.59" y2="176.3" xlink:href="#b"/>
    <linearGradient id="d" x1="139.88" y1="23.9" x2="33.69" y2="152.42" xlink:href="#b"/>
    <linearGradient id="e" x1="105.68" y1="-4.36" x2="-0.51" y2="124.16" xlink:href="#b"/>
    <linearGradient id="f" x1="85.34" y1="-21.16" x2="-20.84" y2="107.36" xlink:href="#b"/>
    <linearGradient id="g" x1="91.84" y1="-15.79" x2="-14.34" y2="112.73" xlink:href="#b"/>
    <linearGradient id="h" x1="120.74" y1="8.09" x2="14.56" y2="136.61" xlink:href="#b"/>
    <linearGradient id="i" x1="154.95" y1="36.35" x2="48.76" y2="164.87" xlink:href="#b"/>
    <linearGradient id="j" x1="175.28" y1="53.15" x2="69.09" y2="181.67" xlink:href="#b"/>
  </defs>
  <title>Jibres Logo</title>
  <g>
    <path class="a" d="M78.59.6a78,78,0,1,0,78,78,78,78,0,0,0-78-78Z"/>
    <g>
      <path class="b" d="M78.59,0a78.59,78.59,0,1,0,78.59,78.59A78.59,78.59,0,0,0,78.59,0Zm0,155.48a76.88,76.88,0,1,1,76.88-76.88A77,77,0,0,1,78.59,155.48Z"/>
      <path class="c" d="M117.49,129.72l-.14-.81v-.12l0-.09,0-.19c0-.13-.06-.25-.1-.38l-.13-.41-.07-.2-.08-.19-.15-.38a8.33,8.33,0,0,0-.82-1.44,3.63,3.63,0,0,0-.25-.33l-.26-.32c-.19-.2-.38-.4-.59-.58a6.89,6.89,0,0,0-.64-.51c-.23-.14-.45-.3-.69-.42s-.48-.23-.72-.34-.49-.19-.75-.26-.5-.13-.75-.18-.51-.09-.76-.1-.5,0-.75,0-.5,0-.74,0a8,8,0,0,0-1.43.26,7.47,7.47,0,0,0-1.33.5,5.78,5.78,0,0,0-2.13,1.7l-.18.23c-.06.08-.12.18-.18.27a5.5,5.5,0,0,0-.33.54c-.1.18-.18.37-.27.55l-.11.28-.05.14,0,.14a5.07,5.07,0,0,0-.2,1.15,4.66,4.66,0,0,0,.08,1.11,4.35,4.35,0,0,0,.33,1,4.18,4.18,0,0,0,.52.81,4.09,4.09,0,0,0,1.29,1,3.5,3.5,0,0,0,1.6.39,1.93,1.93,0,0,0,1.57-.37,2,2,0,0,0-2.44-3.06,1.94,1.94,0,0,0-.45,2.49,3.44,3.44,0,0,1-1.34-1.64,3.77,3.77,0,0,1-.21-.8,3.85,3.85,0,0,1,0-.88,4,4,0,0,1,.23-.91c0-.15.13-.3.19-.46s.15-.3.25-.45a4.94,4.94,0,0,1,.29-.43l.16-.21.19-.23a5.89,5.89,0,0,1,4.1-1.86,7.37,7.37,0,0,1,1.26,0c.21,0,.42.06.63.09s.42.09.63.16.41.14.62.21.4.18.59.29.38.23.56.35.36.26.52.41.32.31.48.46l.21.26a2.5,2.5,0,0,1,.21.27,6.75,6.75,0,0,1,.69,1.2l.13.33.07.16.05.16.11.33c0,.11.06.25.1.37l0,.19,0,.09v0s0,0,0,0v0l.13.72,0,.37a9.26,9.26,0,0,1-.13,2.92,8.49,8.49,0,0,1-1.08,2.72,9.33,9.33,0,0,1-4.5,3.69,11.28,11.28,0,0,1-5.71.67,12.32,12.32,0,0,1-2.69-.69l-.66-.27-.61-.29c-.42-.19-.81-.41-1.21-.62-.86-.47-1.68-1-2.46-1.46-.35.85-.74,1.73-1.17,2.61-.2.4-.4.81-.62,1.21l-.33.59-.38.6a12.29,12.29,0,0,1-1.8,2.12,11.31,11.31,0,0,1-5,2.75,9.35,9.35,0,0,1-5.8-.41,8.54,8.54,0,0,1-2.45-1.59,9.35,9.35,0,0,1-1.79-2.31l-.18-.32-.31-.66,0,0h0l0-.09-.07-.18c0-.12-.1-.24-.13-.36l-.1-.33-.05-.16,0-.17-.08-.34a6.84,6.84,0,0,1-.13-1.37,2.41,2.41,0,0,1,0-.34l0-.34c0-.22.06-.44.12-.66s.12-.42.18-.64.16-.41.26-.61.21-.38.31-.57.24-.36.38-.53.28-.33.42-.49.3-.3.46-.44a7.37,7.37,0,0,1,1-.75,5.9,5.9,0,0,1,4.42-.85l.29.08.25.08a4.78,4.78,0,0,1,.49.18c.16.06.31.15.46.22s.29.17.42.26a4,4,0,0,1,.71.61,3.71,3.71,0,0,1,.51.72,3.87,3.87,0,0,1,.29.77,3.44,3.44,0,0,1,.1.77,3.49,3.49,0,0,1-.25,1.33,1.94,1.94,0,0,0-1.8-1.78,2,2,0,0,0-.22,3.91,1.93,1.93,0,0,0,1.5-.6A3.5,3.5,0,0,0,88,137.57a4.1,4.1,0,0,0,.45-1.6,4.33,4.33,0,0,0,0-1,4.48,4.48,0,0,0-.3-1,4.7,4.7,0,0,0-.58-1,4.86,4.86,0,0,0-.83-.82l-.12-.1-.12-.08-.25-.17c-.18-.1-.35-.21-.54-.29a6.19,6.19,0,0,0-.58-.25l-.3-.11-.28-.09a5.78,5.78,0,0,0-2.72-.16,7.54,7.54,0,0,0-1.37.36,7.86,7.86,0,0,0-1.32.61c-.22.12-.42.26-.63.4s-.4.3-.59.47-.37.34-.56.52-.35.38-.51.59-.31.42-.46.64-.28.45-.39.7a7.49,7.49,0,0,0-.32.74,6.9,6.9,0,0,0-.23.79,7.8,7.8,0,0,0-.15.81c0,.14,0,.27,0,.41a3.9,3.9,0,0,0,0,.41,8.22,8.22,0,0,0,.17,1.65l.1.4,0,.2.06.21.13.41c0,.13.09.24.14.37l.07.18,0,.09v0l0,0,0,0,.35.74.21.36a10.69,10.69,0,0,0,2.07,2.63,9.5,9.5,0,0,0,2.85,1.81,10.58,10.58,0,0,0,6.59.39,12.3,12.3,0,0,0,5.51-3.14,13.36,13.36,0,0,0,1.92-2.37l.36-.61.34-.65c.23-.42.41-.85.61-1.27.26-.58.5-1.15.73-1.71.51.33,1,.66,1.58,1s.8.47,1.23.68l.65.34.65.29a13.26,13.26,0,0,0,2.93.83,12.29,12.29,0,0,0,6.32-.62,10.59,10.59,0,0,0,5.15-4.13,9.52,9.52,0,0,0,1.28-3.13,10.7,10.7,0,0,0,.17-3.34Z"/>
      <path class="d" d="M71.81,135.69a8.08,8.08,0,0,0-.19-.79,7.59,7.59,0,0,0-.27-.75c-.11-.24-.21-.48-.35-.71s-.27-.45-.41-.66-.3-.42-.46-.61-.33-.38-.51-.56-.36-.35-.55-.5a7.88,7.88,0,0,0-1.2-.83,7.66,7.66,0,0,0-1.29-.59,5.78,5.78,0,0,0-2.71-.3l-.29,0-.32.06a6.18,6.18,0,0,0-.61.15c-.2.05-.39.13-.58.2l-.28.12-.14.06-.13.07a5.06,5.06,0,0,0-1,.67,4.72,4.72,0,0,0-.73.84,4.45,4.45,0,0,0-.46.93,4.2,4.2,0,0,0-.2.94,4.07,4.07,0,0,0,.17,1.65,3.52,3.52,0,0,0,.86,1.41,1.94,1.94,0,0,0,1.38.85,2,2,0,0,0,.44-3.9,1.94,1.94,0,0,0-2.08,1.45,3.44,3.44,0,0,1,.21-2.1,3.75,3.75,0,0,1,.42-.71,3.85,3.85,0,0,1,.62-.62A4.1,4.1,0,0,1,62,131c.14-.07.3-.12.46-.19s.32-.11.49-.14a4.59,4.59,0,0,1,.51-.1l.26,0,.3,0a5.89,5.89,0,0,1,4.22,1.58,7.28,7.28,0,0,1,.88.91c.14.16.26.34.38.51s.23.36.33.55.19.39.28.59.16.41.21.62.1.42.15.64.06.44.07.66a6.64,6.64,0,0,1,0,.67l0,.34a2.59,2.59,0,0,1,0,.34,6.86,6.86,0,0,1-.36,1.33l-.14.32-.07.16-.08.15-.15.31-.19.33-.1.17,0,.08v0s0,0,0,0l0,0-.42.6-.23.29a9.33,9.33,0,0,1-2.16,2,8.48,8.48,0,0,1-2.68,1.16,9.34,9.34,0,0,1-5.79-.57,11.31,11.31,0,0,1-4.51-3.56,12.41,12.41,0,0,1-1.41-2.39l-.28-.66-.22-.63c-.16-.43-.28-.87-.41-1.29-.27-.94-.5-1.87-.71-2.77-.85.35-1.74.7-2.67,1-.43.14-.85.3-1.29.41l-.65.18-.69.15a12.4,12.4,0,0,1-2.77.23,11.29,11.29,0,0,1-5.51-1.63,9.33,9.33,0,0,1-3.81-4.39,8.45,8.45,0,0,1-.6-2.86,9.3,9.3,0,0,1,.36-2.9l.1-.35.25-.69,0,0s0,0,0,0v0l0-.09.08-.18c.05-.12.1-.24.16-.35l.16-.3.08-.15.09-.15.19-.3a6.82,6.82,0,0,1,.88-1.06,2.76,2.76,0,0,1,.25-.23l.26-.22c.18-.13.36-.27.55-.38s.39-.21.58-.32.4-.18.61-.25.42-.13.63-.18.43-.09.64-.11.43,0,.64-.05.43,0,.64,0a7.36,7.36,0,0,1,1.25.19,5.89,5.89,0,0,1,3.73,2.53l.15.26.12.24c.08.15.15.31.21.47s.11.33.17.49.09.32.11.48a4,4,0,0,1,.07.94,3.91,3.91,0,0,1-.15.87A4,4,0,0,1,45,125a3.46,3.46,0,0,1-1.59,1.39,1.94,1.94,0,0,0,0-2.53,2,2,0,1,0-2.93,2.61,1.94,1.94,0,0,0,1.48.63,3.52,3.52,0,0,0,1.64-.12,4.08,4.08,0,0,0,1.45-.82,4.23,4.23,0,0,0,.65-.71,4.55,4.55,0,0,0,.49-.92,4.74,4.74,0,0,0,.26-1.08,5,5,0,0,0,0-1.17l0-.15,0-.15-.06-.3c-.06-.2-.1-.4-.17-.59a5.93,5.93,0,0,0-.23-.59c0-.1-.09-.2-.13-.29l-.14-.26a5.8,5.8,0,0,0-1.81-2,7.36,7.36,0,0,0-1.23-.72,7.94,7.94,0,0,0-1.37-.5c-.24-.07-.48-.12-.73-.16s-.5-.08-.75-.09-.51,0-.77,0-.52,0-.78.05-.52.08-.78.13a7.79,7.79,0,0,0-.77.22,7.94,7.94,0,0,0-.75.3,7,7,0,0,0-.72.39,7.42,7.42,0,0,0-.68.47l-.32.27a3.48,3.48,0,0,0-.3.29,8.15,8.15,0,0,0-1.05,1.28l-.22.35-.11.18-.1.19-.2.38c-.06.13-.11.24-.16.36l-.08.18,0,.09v0l0,0,0,0-.27.78-.11.4a10.68,10.68,0,0,0-.39,3.32,9.49,9.49,0,0,0,.73,3.3,10.59,10.59,0,0,0,4.38,4.94,12.3,12.3,0,0,0,6.12,1.68,13.33,13.33,0,0,0,3-.32l.69-.18.7-.22c.46-.14.89-.31,1.33-.47q.89-.34,1.73-.7c.13.59.27,1.2.43,1.81.12.45.23.9.38,1.35l.22.7.26.66a13.4,13.4,0,0,0,1.49,2.66,12.31,12.31,0,0,0,4.91,4,10.59,10.59,0,0,0,6.56.72,9.5,9.5,0,0,0,3.12-1.31,10.63,10.63,0,0,0,2.48-2.24l.26-.32.47-.67,0,0,0,0v0l.05-.08.1-.16.2-.34.2-.38.1-.19.08-.19.16-.38a8.19,8.19,0,0,0,.44-1.6,3.61,3.61,0,0,0,.06-.41c0-.14,0-.28,0-.41a7.77,7.77,0,0,0,0-.83A6.89,6.89,0,0,0,71.81,135.69Z"/>
      <path class="e" d="M32,115.66l.32-.26a8.21,8.21,0,0,0,.58-.59,6.93,6.93,0,0,0,.51-.64,7.74,7.74,0,0,0,.42-.69c.13-.23.23-.48.34-.72s.19-.49.26-.75.13-.5.18-.76.09-.51.1-.76,0-.5,0-.75,0-.5,0-.74a7.81,7.81,0,0,0-.26-1.43,7.52,7.52,0,0,0-.5-1.33,5.77,5.77,0,0,0-1.7-2.12l-.24-.18-.26-.18a6.12,6.12,0,0,0-.54-.33c-.18-.11-.37-.18-.55-.27l-.28-.11-.14-.05-.15,0a5,5,0,0,0-1.15-.2,4.65,4.65,0,0,0-1.11.08,4.47,4.47,0,0,0-1,.33,4.36,4.36,0,0,0-.81.52A4.12,4.12,0,0,0,25,105a3.56,3.56,0,0,0-.39,1.61,1.94,1.94,0,0,0,.38,1.57A2,2,0,0,0,28,105.69a1.93,1.93,0,0,0-2.49-.44,3.47,3.47,0,0,1,.95-1,3.53,3.53,0,0,1,.69-.37,3.38,3.38,0,0,1,1.68-.21,4,4,0,0,1,.91.23c.15,0,.3.13.46.19s.3.15.45.25a4.62,4.62,0,0,1,.43.29l.21.16.23.19a5.89,5.89,0,0,1,1.86,4.1,7.47,7.47,0,0,1,0,1.26c0,.21-.06.42-.09.63s-.09.42-.16.63-.14.41-.21.61-.18.4-.29.59-.23.37-.34.56-.26.36-.41.52-.31.32-.46.48l-.26.22-.27.21a6.69,6.69,0,0,1-1.2.69l-.33.13-.16.07-.16.05-.33.11-.37.09-.19,0-.09,0H28l-.72.13-.36,0a9.32,9.32,0,0,1-2.92-.13A8.49,8.49,0,0,1,21.28,115a9.34,9.34,0,0,1-3.69-4.5,11.31,11.31,0,0,1-.67-5.71,12.33,12.33,0,0,1,.69-2.69l.27-.66.29-.61c.19-.41.41-.81.62-1.21.47-.86,1-1.68,1.46-2.46-.85-.35-1.73-.74-2.61-1.17-.4-.2-.81-.39-1.21-.62L15.85,95l-.6-.38a12.41,12.41,0,0,1-2.12-1.8,11.29,11.29,0,0,1-2.75-5.05,9.32,9.32,0,0,1,.41-5.8,8.45,8.45,0,0,1,1.59-2.45,9.31,9.31,0,0,1,2.31-1.8l.32-.18.66-.31,0,0s0,0,0,0h0l.09,0,.18-.07.36-.14.33-.1.16-.05.17,0,.34-.08a6.7,6.7,0,0,1,1.37-.13h.34l.34,0a6.55,6.55,0,0,1,.66.12c.22,0,.43.12.64.18s.41.16.6.26.38.21.57.31.36.24.53.38.33.28.49.42.31.3.44.46a7.19,7.19,0,0,1,.74,1,5.88,5.88,0,0,1,.85,4.42l-.08.29c0,.09-.06.17-.08.25a5,5,0,0,1-.18.49c-.06.16-.15.31-.22.46s-.16.29-.26.42a3.89,3.89,0,0,1-.61.71,3.73,3.73,0,0,1-.72.51,3.84,3.84,0,0,1-.78.29,3.44,3.44,0,0,1-.77.1,3.47,3.47,0,0,1-1.33-.25,1.93,1.93,0,0,0,1.78-1.8,2,2,0,0,0-3.91-.22,1.94,1.94,0,0,0,.6,1.5A3.52,3.52,0,0,0,19.61,88a4.08,4.08,0,0,0,1.6.45,4.26,4.26,0,0,0,1,0,4.44,4.44,0,0,0,1-.3,4.71,4.71,0,0,0,.95-.58,4.93,4.93,0,0,0,.82-.83L25,86.6l.08-.12.17-.25c.1-.18.21-.35.29-.54a6.07,6.07,0,0,0,.25-.58c0-.1.08-.21.11-.3l.09-.28a5.78,5.78,0,0,0,.16-2.72,7.63,7.63,0,0,0-.36-1.37,7.87,7.87,0,0,0-.61-1.32c-.12-.22-.26-.42-.4-.63s-.3-.4-.47-.59-.34-.37-.52-.56-.38-.35-.59-.51-.42-.31-.64-.46-.45-.28-.7-.39a7.73,7.73,0,0,0-.74-.32,7.12,7.12,0,0,0-.79-.23,8,8,0,0,0-.81-.15l-.41,0h-.41a8.1,8.1,0,0,0-1.65.16l-.4.1-.2,0-.2.06-.41.13-.37.14-.18.07-.09,0h0l0,0,0,0-.74.35-.36.2a10.69,10.69,0,0,0-2.62,2.07A9.52,9.52,0,0,0,9.59,81.5a10.58,10.58,0,0,0-.39,6.59,12.3,12.3,0,0,0,3.14,5.51,13.36,13.36,0,0,0,2.37,1.92l.61.36.65.34c.42.23.85.41,1.27.61.58.26,1.15.5,1.71.73q-.5.76-1,1.58c-.23.4-.47.8-.68,1.23L17,101l-.29.65a13.38,13.38,0,0,0-.83,2.94,12.31,12.31,0,0,0,.62,6.31,10.58,10.58,0,0,0,4.13,5.15,9.49,9.49,0,0,0,3.13,1.28,10.66,10.66,0,0,0,3.33.17l.41,0,.81-.14h.12l.1,0,.19,0,.38-.1.41-.13.2-.06.19-.08.38-.16a8,8,0,0,0,1.44-.82A3,3,0,0,0,32,115.66Z"/>
      <path class="f" d="M12.37,67.2a10.62,10.62,0,0,0,2.24,2.48l.32.26.67.47,0,0,0,0h0l.08.05.16.1.34.2.38.2.19.1.19.08.38.16a8.07,8.07,0,0,0,1.6.44l.41.06.41,0c.28,0,.55,0,.82,0a7.26,7.26,0,0,0,.81-.09,7.85,7.85,0,0,0,.78-.19,7.94,7.94,0,0,0,.75-.27c.24-.11.48-.21.71-.35s.45-.27.66-.4.42-.3.61-.46.38-.33.56-.51.34-.36.5-.55a7.78,7.78,0,0,0,.83-1.2,7.51,7.51,0,0,0,.59-1.29,5.79,5.79,0,0,0,.3-2.71c0-.1,0-.2,0-.29s0-.21-.06-.32a6.28,6.28,0,0,0-.15-.61c-.05-.2-.13-.39-.2-.58l-.12-.28-.06-.14-.07-.13a4.91,4.91,0,0,0-.67-1,4.65,4.65,0,0,0-.84-.73,4.4,4.4,0,0,0-.93-.46,4.22,4.22,0,0,0-.94-.2,4.08,4.08,0,0,0-1.65.17,3.5,3.5,0,0,0-1.41.86,1.94,1.94,0,0,0-.85,1.38,2,2,0,1,0,3.89.44,1.93,1.93,0,0,0-1.45-2.08,3.46,3.46,0,0,1,1.36,0,3.52,3.52,0,0,1,.75.23,3.73,3.73,0,0,1,.71.42,3.79,3.79,0,0,1,.62.62,4,4,0,0,1,.48.8c.07.14.12.3.19.46s.11.32.14.49.08.34.1.51,0,.16,0,.26l0,.29a5.89,5.89,0,0,1-1.58,4.21,7.35,7.35,0,0,1-.91.88c-.16.14-.34.26-.51.38s-.36.23-.56.33-.39.19-.58.28-.41.16-.62.21a6.35,6.35,0,0,1-.64.15c-.22,0-.44.07-.66.07a6.35,6.35,0,0,1-.67,0l-.34,0-.33,0a6.79,6.79,0,0,1-1.33-.36L17.6,70l-.16-.07-.15-.08L17,69.67l-.33-.19-.17-.1-.08,0h0l0,0-.6-.42-.29-.23a9.34,9.34,0,0,1-2-2.16,8.5,8.5,0,0,1-1.16-2.68A9.33,9.33,0,0,1,12.91,58a11.3,11.3,0,0,1,3.56-4.51,12.39,12.39,0,0,1,2.39-1.41l.66-.28.63-.22c.43-.16.87-.28,1.29-.41.94-.27,1.87-.5,2.77-.71-.35-.85-.7-1.75-1-2.67-.14-.43-.3-.85-.41-1.29l-.18-.65-.15-.7a12.34,12.34,0,0,1-.23-2.77,11.27,11.27,0,0,1,1.63-5.51,9.34,9.34,0,0,1,4.39-3.81,8.54,8.54,0,0,1,2.86-.61,9.32,9.32,0,0,1,2.9.36l.35.1.69.25,0,0h0l.09,0,.18.08.35.16.3.16.15.08.15.09.3.18a6.91,6.91,0,0,1,1.06.88,2.78,2.78,0,0,1,.23.25l.22.26a6.44,6.44,0,0,1,.38.55c.12.18.22.38.32.58s.18.4.25.61.13.42.18.63.09.43.11.64,0,.43.05.64,0,.43,0,.64a7.41,7.41,0,0,1-.19,1.25,5.9,5.9,0,0,1-2.53,3.73l-.26.15-.24.12c-.15.08-.31.15-.47.21s-.33.11-.49.17-.32.09-.48.11a4,4,0,0,1-.94.07A3.35,3.35,0,0,1,32.2,45a3.46,3.46,0,0,1-.62-.48,3.5,3.5,0,0,1-.77-1.12,1.94,1.94,0,0,0,2.53,0,2,2,0,0,0-2.61-2.93,1.93,1.93,0,0,0-.63,1.49,3.48,3.48,0,0,0,.12,1.65A4.07,4.07,0,0,0,31,45a4.23,4.23,0,0,0,.71.65,4.46,4.46,0,0,0,.92.49,4.74,4.74,0,0,0,1.08.26,4.91,4.91,0,0,0,1.17,0l.15,0,.15,0,.3-.06c.2-.06.4-.1.59-.17s.39-.14.59-.23l.29-.13.26-.14a5.79,5.79,0,0,0,2-1.81A7.57,7.57,0,0,0,40,42.59a7.86,7.86,0,0,0,.5-1.37c.07-.24.12-.48.17-.73s.07-.5.09-.75,0-.51,0-.77,0-.52-.05-.78-.08-.52-.13-.78-.12-.52-.22-.77a7.49,7.49,0,0,0-.3-.75,6.9,6.9,0,0,0-.39-.72,8.23,8.23,0,0,0-.47-.68l-.27-.32a3.76,3.76,0,0,0-.28-.3,8.11,8.11,0,0,0-1.28-1.05L37,32.62l-.18-.11-.19-.1-.38-.2-.36-.16L35.74,32l-.09,0h0l0,0,0,0-.78-.28-.4-.11A10.72,10.72,0,0,0,31,31.12a9.52,9.52,0,0,0-3.3.73,10.59,10.59,0,0,0-4.94,4.38,12.28,12.28,0,0,0-1.68,6.12,13.36,13.36,0,0,0,.32,3l.18.69.22.7c.14.46.31.89.47,1.33.23.59.46,1.17.7,1.73-.59.13-1.2.27-1.81.43-.45.12-.9.23-1.35.38l-.7.22-.66.26a13.4,13.4,0,0,0-2.66,1.49,12.31,12.31,0,0,0-4,4.9,10.61,10.61,0,0,0-.73,6.56A9.54,9.54,0,0,0,12.37,67.2Z"/>
      <path class="g" d="M39.69,27.46l.14.81v.05a.21.21,0,0,0,0,0v0l0,.1,0,.19c0,.13.06.25.1.38l.13.41.07.2.08.19.16.38a8.08,8.08,0,0,0,.82,1.44,3.34,3.34,0,0,0,.25.33l.27.32a7.6,7.6,0,0,0,.59.58,7.46,7.46,0,0,0,.64.51,8,8,0,0,0,1.41.76c.25.09.49.19.75.26s.5.13.76.18.51.09.76.1.5,0,.76,0,.5,0,.74,0a7.9,7.9,0,0,0,1.43-.26,7.46,7.46,0,0,0,1.33-.5,5.8,5.8,0,0,0,2.13-1.7l.18-.24.18-.27a5.49,5.49,0,0,0,.33-.54c.1-.18.18-.37.27-.55l.11-.28.05-.14,0-.14A5,5,0,0,0,54.44,29a4.77,4.77,0,0,0-.08-1.11,4.51,4.51,0,0,0-.33-1,4.25,4.25,0,0,0-.52-.81,4.08,4.08,0,0,0-1.29-1,3.5,3.5,0,0,0-1.6-.39A1.93,1.93,0,0,0,49,25,2,2,0,1,0,51.49,28a1.93,1.93,0,0,0,.45-2.49,3.44,3.44,0,0,1,1.34,1.64,3.81,3.81,0,0,1,.21.8,3.89,3.89,0,0,1,0,.88,4,4,0,0,1-.23.91c0,.15-.13.3-.19.46s-.15.3-.25.45a4.61,4.61,0,0,1-.29.43l-.16.21-.19.23a5.89,5.89,0,0,1-4.1,1.86,7.19,7.19,0,0,1-1.26,0c-.21,0-.42-.06-.63-.09s-.42-.09-.63-.16-.41-.14-.61-.22-.4-.18-.59-.29a5.61,5.61,0,0,1-1.08-.76c-.17-.14-.32-.31-.48-.47l-.22-.26a2.42,2.42,0,0,1-.21-.27,6.86,6.86,0,0,1-.69-1.2l-.13-.33-.07-.16L41.45,29l-.11-.33c0-.11-.06-.25-.1-.37l0-.19,0-.09v0s0,0,0,0v0L41,27.28l0-.37A9.35,9.35,0,0,1,41.13,24a8.55,8.55,0,0,1,1.08-2.72,9.34,9.34,0,0,1,4.5-3.69,11.29,11.29,0,0,1,5.71-.67,12.31,12.31,0,0,1,2.7.69l.66.27.61.29c.41.19.81.41,1.21.62.86.47,1.68,1,2.46,1.46.35-.85.74-1.73,1.17-2.61.2-.4.39-.81.62-1.21l.33-.59.38-.6a12.41,12.41,0,0,1,1.8-2.12,11.3,11.3,0,0,1,5.05-2.75,9.33,9.33,0,0,1,5.8.41,8.49,8.49,0,0,1,2.45,1.59,9.35,9.35,0,0,1,1.8,2.3l.18.32.31.66,0,0h0l0,.09.07.18c0,.12.1.24.13.36l.1.33.05.16,0,.17.08.34a6.83,6.83,0,0,1,.13,1.37,2.58,2.58,0,0,1,0,.34l0,.34a6.42,6.42,0,0,1-.12.66c0,.22-.12.42-.18.64a6.27,6.27,0,0,1-.26.61,6.37,6.37,0,0,1-.31.57c-.12.18-.24.36-.38.53a6.42,6.42,0,0,1-.42.49c-.15.15-.3.31-.46.44a7.34,7.34,0,0,1-1,.75,5.89,5.89,0,0,1-4.42.85l-.29-.08-.25-.08A4.8,4.8,0,0,1,72,24.6c-.16-.06-.31-.15-.46-.22s-.29-.16-.42-.26a4,4,0,0,1-.71-.61,4,4,0,0,1-.51-.72,3.75,3.75,0,0,1-.29-.78,3.44,3.44,0,0,1-.1-.77,3.51,3.51,0,0,1,.25-1.34,1.93,1.93,0,0,0,1.8,1.78,2,2,0,1,0-1.27-3.31,3.52,3.52,0,0,0-1.08,1.25,4.08,4.08,0,0,0-.45,1.6,4.16,4.16,0,0,0,0,1,4.33,4.33,0,0,0,.3,1,4.72,4.72,0,0,0,.58.95,5,5,0,0,0,.83.82l.12.09.13.08.25.17c.18.1.35.21.54.29a5.64,5.64,0,0,0,.58.25l.3.11.28.09a5.8,5.8,0,0,0,2.72.16,7.39,7.39,0,0,0,1.37-.36,7.78,7.78,0,0,0,1.32-.61c.21-.12.42-.26.63-.4s.4-.3.59-.47.38-.35.56-.52.35-.38.51-.59.31-.42.46-.64a7.75,7.75,0,0,0,.39-.7c.13-.24.22-.49.32-.74a6.93,6.93,0,0,0,.23-.79,8,8,0,0,0,.15-.81c0-.14,0-.28,0-.41a3.65,3.65,0,0,0,0-.41,8.3,8.3,0,0,0-.16-1.65l-.1-.4,0-.2-.07-.2-.13-.41c0-.13-.09-.24-.14-.37l-.07-.18,0-.09v0l0,0,0,0-.35-.74L80.6,14a10.65,10.65,0,0,0-2.07-2.62,9.52,9.52,0,0,0-2.85-1.82,10.61,10.61,0,0,0-6.59-.39,12.33,12.33,0,0,0-5.52,3.14,13.37,13.37,0,0,0-1.92,2.37l-.36.61L61,16c-.23.42-.41.85-.61,1.27q-.39.87-.73,1.71-.76-.49-1.58-1c-.4-.23-.8-.47-1.23-.68L56.16,17l-.65-.29a13.35,13.35,0,0,0-2.94-.83,12.29,12.29,0,0,0-6.31.62,10.58,10.58,0,0,0-5.15,4.13,9.55,9.55,0,0,0-1.28,3.13,10.72,10.72,0,0,0-.17,3.33Z"/>
      <path class="h" d="M85.37,21.5A7.95,7.95,0,0,0,85.83,23c.11.24.22.48.35.71s.26.45.4.66.3.42.46.61.33.38.5.56.36.35.55.5a7.9,7.9,0,0,0,1.2.83,7.37,7.37,0,0,0,1.29.59,5.8,5.8,0,0,0,2.71.3l.29,0,.32-.06a5.86,5.86,0,0,0,.61-.15c.2-.05.39-.13.58-.2l.28-.12.14-.06.13-.07a5.07,5.07,0,0,0,1-.67,4.73,4.73,0,0,0,.73-.84,4.55,4.55,0,0,0,.46-.93,4.22,4.22,0,0,0,.2-.94A4.07,4.07,0,0,0,97.84,22,3.5,3.5,0,0,0,97,20.64a1.93,1.93,0,0,0-1.38-.84,2,2,0,1,0-.44,3.89,1.93,1.93,0,0,0,2.08-1.45,3.5,3.5,0,0,1,0,1.36,3.6,3.6,0,0,1-.23.75,3.4,3.4,0,0,1-1,1.34,4,4,0,0,1-.8.48c-.14.08-.3.12-.45.19s-.32.11-.49.14-.34.08-.51.1l-.26,0-.29,0A5.89,5.89,0,0,1,89,25.08a7.14,7.14,0,0,1-.88-.91c-.14-.16-.26-.34-.38-.51s-.23-.36-.33-.56-.19-.39-.28-.59-.16-.41-.21-.62a6.46,6.46,0,0,1-.15-.64c0-.22-.07-.44-.07-.66a6.6,6.6,0,0,1,0-.67l0-.34a2.59,2.59,0,0,1,0-.34,6.72,6.72,0,0,1,.36-1.33l.14-.32.07-.16.08-.15.15-.3.19-.33.1-.17.05-.08h0l0,0,.42-.6.23-.28a9.3,9.3,0,0,1,2.16-2,8.47,8.47,0,0,1,2.68-1.16,9.33,9.33,0,0,1,5.79.57,11.31,11.31,0,0,1,4.51,3.56,12.31,12.31,0,0,1,1.41,2.39l.28.66.22.63c.16.43.28.86.41,1.29.27.94.5,1.87.71,2.77.85-.35,1.74-.7,2.67-1,.43-.14.85-.3,1.29-.41l.65-.18.7-.15a12.35,12.35,0,0,1,2.77-.23,11.31,11.31,0,0,1,5.51,1.63,9.33,9.33,0,0,1,3.81,4.39,8.5,8.5,0,0,1,.6,2.86,9.31,9.31,0,0,1-.36,2.9l-.1.35L124,35l0,0s0,0,0,0v0l0,.09-.08.18c-.05.12-.1.24-.16.35l-.16.3-.08.15-.09.15-.19.3a6.89,6.89,0,0,1-.88,1.06,2.52,2.52,0,0,1-.25.23l-.26.22c-.18.13-.36.27-.55.38s-.38.21-.58.32a6.26,6.26,0,0,1-.61.25c-.2.08-.42.13-.63.19s-.43.09-.64.11-.43,0-.64.05-.43,0-.64,0a7.21,7.21,0,0,1-1.25-.19,5.88,5.88,0,0,1-3.73-2.53l-.15-.26c0-.08-.08-.16-.12-.23a4.85,4.85,0,0,1-.21-.47c-.07-.16-.11-.33-.17-.49s-.09-.32-.11-.48a4,4,0,0,1-.07-.94,3.39,3.39,0,0,1,.49-1.62,3.4,3.4,0,0,1,.48-.62,3.48,3.48,0,0,1,1.12-.77,1.94,1.94,0,0,0,0,2.53,2,2,0,0,0,2.93-2.61,1.93,1.93,0,0,0-1.49-.63,3.52,3.52,0,0,0-1.65.12,4.08,4.08,0,0,0-1.45.82,4.21,4.21,0,0,0-.65.71,4.42,4.42,0,0,0-.49.92,4.85,4.85,0,0,0-.26,1.08,5,5,0,0,0,0,1.17l0,.15,0,.15.06.3c.06.19.1.4.17.59a5.71,5.71,0,0,0,.23.59c0,.1.09.2.13.29l.14.26a5.79,5.79,0,0,0,1.81,2,7.5,7.5,0,0,0,1.22.72,8,8,0,0,0,1.37.5c.24.07.48.11.73.17s.5.07.75.09.51,0,.77,0,.52,0,.78-.05.52-.08.78-.13.52-.12.77-.22a7.72,7.72,0,0,0,.75-.3,6.93,6.93,0,0,0,.72-.39,8,8,0,0,0,.68-.47l.32-.27a3.75,3.75,0,0,0,.3-.28,8.25,8.25,0,0,0,1.05-1.28l.22-.35.11-.18.1-.19.2-.38c.06-.12.1-.24.16-.36l.08-.18,0-.09v0c0-.05,0,0,0,0l0,0,.27-.78.11-.4a10.63,10.63,0,0,0,.4-3.32,9.5,9.5,0,0,0-.73-3.3,10.58,10.58,0,0,0-4.38-4.94,12.31,12.31,0,0,0-6.12-1.68,13.37,13.37,0,0,0-3,.32l-.69.18-.7.22c-.46.14-.89.31-1.33.47q-.89.34-1.72.7c-.13-.59-.27-1.2-.43-1.81-.12-.45-.23-.9-.39-1.35l-.22-.7-.26-.66a13.35,13.35,0,0,0-1.49-2.66,12.31,12.31,0,0,0-4.91-4,10.59,10.59,0,0,0-6.56-.73A9.52,9.52,0,0,0,90,12.37a10.69,10.69,0,0,0-2.48,2.24l-.26.32-.47.67,0,0,0,0v0l-.05.08-.1.17-.2.34-.2.38-.1.19-.08.19-.16.38a8.12,8.12,0,0,0-.44,1.6,3.37,3.37,0,0,0-.06.41c0,.14,0,.28,0,.41s0,.55,0,.82A7.2,7.2,0,0,0,85.37,21.5Z"/>
      <path class="i" d="M144.85,63.58a13.41,13.41,0,0,0-2.37-1.92l-.61-.36-.65-.34c-.42-.23-.85-.41-1.27-.61-.58-.26-1.15-.5-1.71-.73q.5-.76,1-1.58c.23-.4.47-.8.68-1.23l.34-.65.29-.65a13.45,13.45,0,0,0,.83-2.94,12.31,12.31,0,0,0-.62-6.31,10.6,10.6,0,0,0-4.13-5.15,9.49,9.49,0,0,0-3.13-1.28,10.67,10.67,0,0,0-3.34-.17l-.41,0-.81.14h-.12l-.09,0-.19,0-.38.1-.41.13-.2.07-.2.08-.38.16a8.11,8.11,0,0,0-1.44.82,3.76,3.76,0,0,0-.33.25l-.32.27a7.62,7.62,0,0,0-.58.59,6.94,6.94,0,0,0-.51.64,7.78,7.78,0,0,0-.42.69c-.13.23-.24.48-.34.72s-.19.49-.26.75-.13.5-.18.76-.09.51-.1.76,0,.5,0,.75,0,.5,0,.74a7.88,7.88,0,0,0,.26,1.43,7.52,7.52,0,0,0,.5,1.33,5.79,5.79,0,0,0,1.7,2.12l.23.18.27.18a5.66,5.66,0,0,0,.54.33c.18.1.37.18.55.27l.28.11.14.05.15,0a5,5,0,0,0,1.15.21,4.76,4.76,0,0,0,1.11-.08,4.47,4.47,0,0,0,1-.33,4.26,4.26,0,0,0,.81-.52,4.07,4.07,0,0,0,1-1.29,3.47,3.47,0,0,0,.39-1.6A1.94,1.94,0,0,0,132.2,49a2,2,0,1,0-3.06,2.44,1.94,1.94,0,0,0,2.49.45,3.5,3.5,0,0,1-.95,1,3.57,3.57,0,0,1-.69.36,3.7,3.7,0,0,1-.8.21,3.78,3.78,0,0,1-.88,0,4,4,0,0,1-.91-.23c-.15,0-.3-.13-.45-.19s-.3-.15-.45-.25a4.93,4.93,0,0,1-.43-.29l-.21-.16-.23-.19a5.89,5.89,0,0,1-1.86-4.1,7.19,7.19,0,0,1,0-1.26c0-.21.06-.42.09-.63s.09-.42.16-.63a6,6,0,0,1,.21-.61c.09-.2.18-.4.29-.59s.23-.37.34-.56.26-.35.41-.52.31-.32.47-.48l.26-.22a2.62,2.62,0,0,1,.27-.21,6.87,6.87,0,0,1,1.2-.69l.33-.13.16-.07.16-.05.33-.11.37-.1.19,0,.09,0h.07l.72-.13.37,0a9.33,9.33,0,0,1,2.92.13,8.5,8.5,0,0,1,2.72,1.08,9.33,9.33,0,0,1,3.69,4.5,11.3,11.3,0,0,1,.67,5.71,12.39,12.39,0,0,1-.69,2.69l-.27.66-.29.61c-.19.41-.41.81-.62,1.2-.47.86-1,1.68-1.46,2.46.85.35,1.73.74,2.61,1.17.4.2.81.39,1.21.62l.59.33.6.38a12.39,12.39,0,0,1,2.12,1.8,11.31,11.31,0,0,1,2.75,5,9.34,9.34,0,0,1-.41,5.8,8.48,8.48,0,0,1-1.6,2.45,9.32,9.32,0,0,1-2.3,1.79l-.32.18-.66.31,0,0s0,0,0,0h0l-.09,0-.18.07-.36.13-.33.1-.16.05-.17,0-.34.08a6.62,6.62,0,0,1-1.37.13h-.34l-.34,0c-.22,0-.44-.06-.66-.12s-.43-.12-.64-.18-.41-.15-.61-.26-.39-.21-.57-.31a6.32,6.32,0,0,1-.53-.38c-.17-.13-.33-.28-.49-.42s-.31-.3-.44-.46a7.2,7.2,0,0,1-.75-1,5.9,5.9,0,0,1-.85-4.42l.08-.29c0-.09.06-.17.08-.25a4.76,4.76,0,0,1,.18-.49c.06-.16.15-.31.22-.46s.16-.29.26-.42a3.92,3.92,0,0,1,.61-.71,3.87,3.87,0,0,1,.72-.51,3.75,3.75,0,0,1,.77-.29,3.56,3.56,0,0,1,.77-.1,3.49,3.49,0,0,1,1.34.25,1.94,1.94,0,0,0-1.78,1.8,2,2,0,0,0,3.91.22,1.93,1.93,0,0,0-.6-1.5,3.47,3.47,0,0,0-1.25-1.08,4,4,0,0,0-1.6-.45,4.28,4.28,0,0,0-1,0,4.48,4.48,0,0,0-1,.3,4.76,4.76,0,0,0-1,.58,5,5,0,0,0-.82.83l-.09.12-.08.13-.17.25c-.1.18-.21.35-.3.54s-.18.37-.25.58-.08.21-.11.3l-.09.28a5.79,5.79,0,0,0-.16,2.72,7.42,7.42,0,0,0,.36,1.37,7.81,7.81,0,0,0,.62,1.32c.12.22.26.42.4.63s.3.4.47.59.34.38.52.56.38.35.59.51.42.31.64.46.45.28.7.39.49.22.74.32a7.21,7.21,0,0,0,.79.23,8,8,0,0,0,.81.15l.41,0h.42a8.15,8.15,0,0,0,1.65-.16l.4-.1.2,0,.2-.06.41-.13.37-.14.18-.07.09,0h0l0,0,0,0,.74-.35.36-.21a10.65,10.65,0,0,0,2.62-2.07,9.49,9.49,0,0,0,1.81-2.85,10.57,10.57,0,0,0,.39-6.59A12.3,12.3,0,0,0,144.85,63.58Z"/>
      <path class="j" d="M144.81,90a10.71,10.71,0,0,0-2.24-2.48l-.32-.26-.67-.47,0,0,0,0h0l-.08-.05-.17-.1-.34-.2-.38-.2-.19-.1-.19-.08-.38-.16a8.1,8.1,0,0,0-1.6-.44,3,3,0,0,0-.41-.06l-.41,0a8,8,0,0,0-.83,0,6.82,6.82,0,0,0-.81.09,7.91,7.91,0,0,0-.79.19c-.26.07-.51.17-.75.27s-.48.21-.71.35-.45.27-.66.41-.42.3-.61.46-.38.34-.56.51-.34.36-.5.55a7.89,7.89,0,0,0-.83,1.2,7.33,7.33,0,0,0-.59,1.29,5.8,5.8,0,0,0-.3,2.71l0,.29c0,.1,0,.21.06.32a6.23,6.23,0,0,0,.15.61c.05.2.13.39.2.58l.12.28.06.14.07.13a5,5,0,0,0,.67,1,4.8,4.8,0,0,0,.84.73,4.53,4.53,0,0,0,.93.46,4.27,4.27,0,0,0,.94.2,4.11,4.11,0,0,0,1.65-.17,3.54,3.54,0,0,0,1.41-.86,1.93,1.93,0,0,0,.84-1.38,2,2,0,1,0-3.89-.44,1.93,1.93,0,0,0,1.45,2.08,3.41,3.41,0,0,1-2.1-.21,3.78,3.78,0,0,1-.71-.42,3.83,3.83,0,0,1-.62-.62,4,4,0,0,1-.48-.8c-.08-.14-.12-.3-.19-.46s-.11-.32-.14-.49-.08-.34-.1-.51,0-.17,0-.26l0-.29A5.88,5.88,0,0,1,132.11,89a7.2,7.2,0,0,1,.91-.88c.16-.14.34-.26.51-.38s.36-.23.56-.33.39-.19.59-.28.41-.16.62-.21.42-.1.64-.15.44-.07.66-.07.45,0,.67,0l.34,0,.34,0a6.71,6.71,0,0,1,1.33.36l.33.14.16.07.15.08.31.15.33.19.16.1.08,0h0l0,0,.6.42.29.23a9.3,9.3,0,0,1,2,2.16,8.55,8.55,0,0,1,1.16,2.68,9.34,9.34,0,0,1-.57,5.79,11.29,11.29,0,0,1-3.56,4.51,12.35,12.35,0,0,1-2.39,1.42l-.66.28-.63.22c-.43.16-.87.28-1.29.41-.94.27-1.87.5-2.77.71.35.85.7,1.74,1,2.67.14.42.3.85.41,1.29l.18.65.15.7a12.29,12.29,0,0,1,.23,2.77,11.32,11.32,0,0,1-1.63,5.51,9.35,9.35,0,0,1-4.39,3.81,8.5,8.5,0,0,1-2.86.6,9.38,9.38,0,0,1-2.9-.36l-.35-.1-.69-.25h-.07l-.09,0-.18-.08-.35-.16-.3-.16-.15-.08-.15-.09-.3-.19a6.72,6.72,0,0,1-1.06-.88,2.39,2.39,0,0,1-.23-.25l-.22-.26a6.33,6.33,0,0,1-.38-.55c-.12-.18-.21-.38-.32-.58s-.18-.4-.25-.61-.13-.42-.18-.63-.09-.43-.11-.64,0-.43-.05-.64,0-.43,0-.64a7.06,7.06,0,0,1,.19-1.25,5.89,5.89,0,0,1,2.52-3.73l.26-.15.23-.12a4.72,4.72,0,0,1,.47-.21c.16-.07.32-.11.48-.17s.32-.09.48-.11a4,4,0,0,1,.94-.07,3.78,3.78,0,0,1,.87.15,3.85,3.85,0,0,1,.75.34,3.45,3.45,0,0,1,1.39,1.6,1.94,1.94,0,0,0-2.54,0,2,2,0,0,0,2.61,2.93,1.93,1.93,0,0,0,.64-1.48,3.52,3.52,0,0,0-.12-1.65,4.08,4.08,0,0,0-.82-1.45,4.22,4.22,0,0,0-.71-.65,4.57,4.57,0,0,0-.92-.49,4.86,4.86,0,0,0-1.08-.26,5,5,0,0,0-1.17,0l-.15,0-.15,0-.3.06c-.19.06-.4.1-.59.17a6.26,6.26,0,0,0-.59.23l-.29.13-.26.14a5.78,5.78,0,0,0-2,1.81,7.54,7.54,0,0,0-.71,1.22,7.79,7.79,0,0,0-.5,1.37c-.07.24-.12.48-.17.73s-.08.5-.09.75,0,.51,0,.77,0,.52.05.78.08.52.13.78a7.53,7.53,0,0,0,.22.77c.08.26.19.5.3.75a6.92,6.92,0,0,0,.39.72,8.23,8.23,0,0,0,.47.68l.27.31a3.77,3.77,0,0,0,.28.3,8.19,8.19,0,0,0,1.28,1.05l.35.22.18.11.19.1.38.2.36.16.18.08.09,0h0l0,0,0,0,.77.27.4.11a10.67,10.67,0,0,0,3.31.4,9.52,9.52,0,0,0,3.3-.73,10.59,10.59,0,0,0,4.94-4.38,12.32,12.32,0,0,0,1.68-6.12,13.36,13.36,0,0,0-.32-3l-.18-.69-.22-.7c-.14-.46-.31-.89-.47-1.33q-.34-.89-.7-1.73.89-.19,1.81-.43c.45-.12.9-.23,1.35-.39l.7-.22.67-.26a13.38,13.38,0,0,0,2.66-1.49,12.33,12.33,0,0,0,4-4.91,10.58,10.58,0,0,0,.72-6.56A9.52,9.52,0,0,0,144.81,90Z"/>
    </g>
    <path class="k" d="M120.08,67.8a21.11,21.11,0,0,1-1.26-2.85,8.15,8.15,0,0,1-.15-1c-.54-2.08-1-4.2-1.68-6.23a19.37,19.37,0,0,0-1.91-3.67,23.63,23.63,0,0,0-2.13-3,12.5,12.5,0,0,0-1.79-1.52c-1.7-1.38-3.24-2.85-3-5.57-.77,1.27-.57,2.72.45,4.3.78,1.21,1.64,2.37,2.66,3.84-.93-.53-2.09-.83-2.17-1.32-.16-.92-.93-.78-1.32-1.09-2.51-2-2.55-1.9-3.72-4.8a4,4,0,0,0,.77,3.7c1.36,1.52,2.78,3,4.14,4.48,2,2.2,4,4.42,5,7.53l-2.26-.29c0-1.83,0-3.61-1.78-4.84a3.71,3.71,0,0,0-.52,3.82,1.93,1.93,0,0,1-.41,2.4,35.71,35.71,0,0,0-2.88,4.88A31.77,31.77,0,0,1,102.74,72c-.58.65-1.24,2.06-2.7,1.69a.55.55,0,0,0-.42.21c-1.22,1.44-3,1.34-4.61,1.82a8.27,8.27,0,0,0-3.27,1.6,8.18,8.18,0,0,1-4.61,2.18c-2.61.39-5.21.87-7.83,1.24a7.15,7.15,0,0,1-2.1-.11c-1.74-.28-3.48-.56-5.21-.93-2.61-.56-5.25-1-7.78-1.85a9.39,9.39,0,0,0-4.5.06c-2.48.38-4.95.82-7.42,1.24a6.37,6.37,0,0,0-.86.31c1.87.76,3.5.35,5.15.1,2-.29,3.93-.5,5.9-.65,1.09-.09,1.44.24,1.81,1.36-.55.13-1.1.28-1.65.38a4,4,0,0,0-3.37,3.73c-.11,1.79-.48,3.48-2.4,4.07a4.77,4.77,0,0,1-3.06,0,5.26,5.26,0,0,0-6.2.71c-2.48,2-5.49,3.29-8.33,4.79A16.47,16.47,0,0,1,35.95,95a1,1,0,0,1-.79-.26c-1.13-1.16-1.86-.34-2.6.49-.19.21-.34.45-.5.65,0,.13.06.26.11.28,2.21.59,4.42,1.46,6.71.4a61.52,61.52,0,0,0,5.53-2.77c2.34-1.39,4.68-2.23,7.53-.92-1.81,1.95-3.57,4-5.46,5.83-1.13,1.11-2.71,1.83-3.68,3-.75.94-1.43.71-2.29.88s-1.59,1.12-2.37,1.72l.2.42c1.58-.09,3.17-.14,4.74-.32a2.62,2.62,0,0,0,1.24-.78c2.18-2,4.43-3.9,6.45-6A6.06,6.06,0,0,1,56,95.8c4.54.26,9.1.39,13.65.43a5.09,5.09,0,0,0,4-1.66c.51-.59,1-.38,1.54-.15,7.34,3,14.68,2.56,22-.15,1.18-.44,2.21-1.37,3.41-1.7a9.74,9.74,0,0,1,3.66-.16c2,.24,3.94.45,5.89.78l2.28.9,0,0L111,95.58a1.36,1.36,0,0,0-.16.21c-1,.36-2.14.66-3.17,1.05-.45.17-1,.21-1.33.51a2.37,2.37,0,0,1-2.66.27,1.46,1.46,0,0,0-1.67.21c-.94.82-1.92,1.6-3,2.53a4.89,4.89,0,0,0,4,.27c1.24-.47,2.61-.57,3.9-.91,3.4-.9,6.67-2,10-3.13a1.33,1.33,0,0,0,.4-.23,1.75,1.75,0,0,0,1-.56,2.19,2.19,0,0,0,.55-1.3,1.84,1.84,0,0,0-.27-1.06,1.27,1.27,0,0,0-1.32-.59L114.89,91a1.72,1.72,0,0,0-.39-.23A11.07,11.07,0,0,0,107,88a2.09,2.09,0,0,1-.53-.13,15.7,15.7,0,0,1,2.95-8.05c1.28-1.72,2-3.9,2.94-5.86.8-1.6,1.3-1.84,3-1.4,1.23.31,2.41.83,3.65,1.07a3.2,3.2,0,0,0,2.16-.25c.93-.61,1.7-1.55.88-2.8C121.45,69.65,120.66,68.79,120.08,67.8Z"/>
  </g>
</svg>
