<?xml version="1.0" encoding="utf-8"?>
<svg version="1.1" id="sarshomarLogo" xmlns="http://www.w3.org/2000/svg" xmlns:xlink="http://www.w3.org/1999/xlink" x="0px" y="0px"
	 viewBox="0 0 300 300" style="enable-background:new 0 0 300 300;" xml:space="preserve">
<style type="text/css">
	.st0{fill:#FFFFFF;}
	.st1{fill:#04677B;}
	.st2{fill:#CC2031;}
</style>
<circle class="st0" cx="150" cy="150" r="150"/>
<path class="st1" d="M40.6,195.3l-27.9-27.9c3.2,25.2,13.1,48.3,27.9,67.4V195.3z"/>
<path class="st1" d="M104.7,259.4H65.2c19.1,14.8,42.2,24.8,67.4,27.9L104.7,259.4z"/>
<path class="st1" d="M259.4,65.2v39.5l27.9,27.9C284.2,107.4,274.3,84.3,259.4,65.2z"/>
<path class="st1" d="M195.3,259.4l-27.9,27.9c25.2-3.2,48.3-13.1,67.4-27.9H195.3z"/>
<path class="st1" d="M259.4,195.3v39.5c14.8-19.1,24.8-42.2,27.9-67.4L259.4,195.3z"/>
<polygon class="st1" points="247.9,93.1 247.9,52.1 206.9,52.1 "/>
<polygon class="st1" points="259.4,179 288.5,150 259.4,121 "/>
<polygon class="st1" points="247.9,206.9 247.9,247.9 206.9,247.9 "/>
<polygon class="st1" points="179,259.4 150,288.5 121,259.4 "/>
<polygon class="st1" points="52.1,247.9 93.1,247.9 52.1,206.9 "/>
<polygon class="st1" points="40.6,179 11.5,150 40.6,121 "/>
<path class="st2" d="M239.8,101.3l-41.1-41.1c-5.2-5.2-12.2-8.1-19.6-8.1h-40.3c-6.3,0-11.8-4.2-13.4-10.3
	c-2.6-10-0.2-21.1,7.3-29.2c-4.9,1.1-9.5,3.6-13.3,7.4c-3.7,3.7-6.2,8.3-7.3,13c-1-1.4-2-2.8-3.3-4c-3.4-3.4-7.4-5.7-11.7-7
	c-2.1,3.9-3.3,8.4-3.3,13.2c0,1.8,0.2,3.5,0.5,5.2c-4.2-2.6-9.1-4-14.4-4c-5.4,0-10.3,1.5-14.6,4.2C76.3,41,85.8,47.1,91,56
	c3.2,5.4,2.3,12.3-2.2,16.8l-28.6,28.6c-5.2,5.2-8.1,12.2-8.1,19.6v58.2c0,7.3,2.9,14.4,8.1,19.6l41.1,41.1
	c5.2,5.2,12.2,8.1,19.6,8.1h58.2c7.3,0,14.4-2.9,19.6-8.1l41.1-41.1c5.2-5.2,8.1-12.2,8.1-19.6V121
	C247.9,113.6,245,106.5,239.8,101.3z"/>
</svg>
