<?xml version="1.0" encoding="utf-8"?>
<svg version="1.1" id="tejarakLogo" xmlns="http://www.w3.org/2000/svg" xmlns:xlink="http://www.w3.org/1999/xlink" x="0px" y="0px"
	 viewBox="0 0 1000 1000" style="enable-background:new 0 0 1000 1000;" xml:space="preserve">
<style type="text/css">
	.st0{fill:#C01541;}
	.st1{fill:#E0D7C1;}
</style>
<path class="st0" d="M500,500l217.8-217.8c17.1-17.1,15.2-45.3-3.9-60L485.2,46.5l-70.8,149.3L500,500z"/>
<path class="st0" d="M500,500L282.2,282.2c-17.1-17.1-45.3-15.2-60,3.9L46.5,514.8l149.3,70.8L500,500z"/>
<path class="st0" d="M500,500L282.2,717.8c-17.1,17.1-15.2,45.3,3.9,60l228.6,175.7l70.8-149.3L500,500z"/>
<path class="st0" d="M500,500l217.8,217.8c17.1,17.1,45.3,15.2,60-3.9l175.7-228.6l-149.3-70.8L500,500z"/>
<path class="st1" d="M500,500L0,0l434.5,28.7c55.5,3.7,97.3,51.9,93.1,107.4L500,500z"/>
<path class="st1" d="M500,500L0,1000l28.7-434.5c3.7-55.5,51.9-97.3,107.4-93.1L500,500z"/>
<path class="st1" d="M500,500l500,500l-434.5-28.7c-55.5-3.7-97.3-51.9-93.1-107.4L500,500z"/>
<path class="st1" d="M500,500L1000,0l-28.7,434.5c-3.7,55.5-51.9,97.3-107.4,93.1L500,500z"/>
</svg>
