<?xml version="1.0" standalone="no"?>
<!DOCTYPE svg PUBLIC "-//W3C//DTD SVG 20010904//EN"
 "http://www.w3.org/TR/2001/REC-SVG-20010904/DTD/svg10.dtd">
<svg version="1.0" xmlns="http://www.w3.org/2000/svg"
 width="800.000000pt" height="800.000000pt" viewBox="0 0 800.000000 800.000000"
 preserveAspectRatio="xMidYMid meet">
<metadata>
Created by potrace 1.11, written by Peter Selinger 2001-2013
</metadata>
<g transform="translate(0.000000,800.000000) scale(0.100000,-0.100000)"
fill="#000000" stroke="none">
<path d="M3848 7763 c-29 -18 -41 -51 -44 -118 0 -22 -2 -67 -4 -100 -1 -33 2
-71 8 -85 10 -25 65 -83 76 -81 3 1 7 0 9 0 3 -2 47 -5 153 -12 50 -4 98 -9
105 -11 8 -3 32 -7 54 -10 32 -4 135 -24 210 -40 25 -6 106 -29 170 -48 39
-12 75 -23 80 -24 12 -3 155 -59 210 -82 140 -59 425 -213 433 -234 2 -4 8 -8
13 -8 12 0 69 -37 202 -132 109 -78 135 -88 180 -67 51 23 53 36 43 296 -3 70
-20 133 -36 133 -5 0 -15 6 -22 13 -33 32 -253 167 -398 244 -186 100 -564
253 -624 253 -9 0 -16 4 -16 8 0 4 -8 8 -17 9 -10 1 -65 13 -123 28 -58 14
-123 28 -145 31 -22 3 -56 9 -75 14 -19 5 -60 11 -90 14 -30 4 -66 8 -79 11
-13 2 -74 7 -135 9 -93 5 -115 3 -138 -11z"/>
<path d="M3528 7765 c-1 -1 -32 -5 -68 -9 -67 -6 -142 -18 -260 -42 -221 -45
-501 -141 -720 -249 -167 -81 -244 -126 -264 -153 -22 -29 -29 -93 -15 -131
12 -31 58 -71 84 -72 11 -1 43 -3 70 -5 47 -2 65 -4 169 -19 21 -3 43 -8 49
-12 6 -3 21 -7 34 -9 30 -3 203 -84 203 -95 0 -4 8 -10 18 -13 31 -10 138
-118 180 -181 54 -82 105 -199 118 -270 2 -9 3 -14 9 -40 1 -5 3 -18 3 -27 1
-9 13 -29 27 -44 24 -26 27 -26 157 -28 150 -2 177 3 200 42 16 27 17 97 3
142 -6 18 -13 50 -19 87 -1 7 -5 16 -9 19 -4 4 -7 15 -7 24 0 52 -127 299
-191 370 -83 93 -104 152 -75 208 27 52 63 70 169 86 20 3 52 8 70 11 17 3 49
7 71 10 58 7 79 16 96 39 19 28 20 31 25 179 3 121 2 129 -19 154 -16 18 -34
26 -63 28 -23 2 -43 2 -45 0z"/>
<path d="M5917 6870 c-28 -32 -26 -5 -13 -326 3 -87 28 -127 95 -157 41 -18
67 -20 228 -21 164 0 184 2 202 19 33 29 27 73 -15 120 -98 108 -312 320 -372
367 -48 38 -92 38 -125 -2z"/>
<path d="M4285 6782 c-3 -3 -16 -6 -29 -8 -58 -6 -176 -112 -176 -158 0 -8 -4
-17 -8 -20 -5 -3 -9 -21 -10 -40 -1 -18 -2 -38 -4 -42 -1 -5 1 -26 5 -46 8
-39 64 -97 95 -99 9 -1 224 -2 477 -3 363 -1 463 2 474 12 18 17 6 59 -19 67
-11 3 -20 11 -20 16 0 5 -4 9 -9 9 -5 0 -53 26 -108 58 -94 56 -165 92 -283
145 -57 25 -88 38 -105 43 -5 2 -44 15 -85 29 -72 26 -185 47 -195 37z"/>
<path d="M1048 6685 c-3 -3 -18 -8 -34 -11 -69 -12 -65 0 -50 -158 13 -136 20
-265 20 -398 1 -143 0 -147 -24 -173 -83 -90 -233 -76 -286 27 -19 36 -13 121
10 166 13 25 13 26 -37 49 -28 13 -54 20 -57 16 -19 -21 -41 -118 -41 -181 -1
-119 44 -191 149 -240 100 -47 224 -32 313 39 42 33 91 122 93 168 l1 29 82 1
c149 2 192 16 245 82 47 58 45 135 -7 277 -10 28 -24 52 -29 52 -6 0 -33 -12
-61 -26 l-50 -26 32 -67 c17 -36 34 -80 36 -98 5 -29 2 -33 -34 -47 -23 -10
-69 -16 -113 -16 -108 0 -106 -5 -112 236 -4 110 -7 219 -8 244 -1 48 -19 74
-38 55z"/>
<path d="M1624 6680 c-5 -5 -21 -11 -34 -14 -14 -2 -27 -5 -30 -6 -3 -2 -8 -2
-13 -1 -4 1 -5 -25 -1 -56 3 -32 7 -152 8 -268 2 -232 5 -245 70 -284 37 -22
122 -43 151 -37 39 8 80 28 97 46 16 17 19 17 75 -11 63 -32 126 -37 175 -13
59 30 95 140 72 221 -23 77 -40 100 -94 129 -66 34 -148 8 -188 -59 -10 -18
-33 -57 -52 -88 -41 -71 -82 -96 -147 -90 -30 3 -37 47 -39 256 -2 116 -5 221
-7 235 -3 14 -5 31 -6 38 -1 14 -23 16 -37 2z m446 -427 c33 -30 45 -69 30
-93 -7 -12 -16 -12 -64 3 -30 10 -58 22 -61 27 -6 9 24 70 40 82 16 12 23 10
55 -19z"/>
<path d="M2592 6673 l-54 -16 7 -76 c4 -42 9 -116 11 -166 3 -49 6 -109 7
-132 2 -24 -1 -43 -6 -43 -5 0 -4 -6 2 -13 6 -8 9 -16 7 -18 -2 -2 -7 -46 -9
-97 l-6 -94 42 8 c23 4 50 7 59 6 10 0 22 7 27 16 15 28 4 524 -13 607 -3 11
-5 23 -5 28 -1 9 -5 9 -69 -10z"/>
<path d="M2295 6632 c-13 -9 -12 -187 0 -187 6 0 11 44 12 98 1 53 1 97 0 97
-1 0 -7 -4 -12 -8z"/>
<path d="M1765 6596 c1 -17 -2 -39 -7 -48 -5 -10 -5 -18 -1 -18 5 0 8 -19 7
-42 l-1 -43 51 1 c67 2 68 3 62 12 -3 5 -23 8 -46 7 -22 -1 -40 2 -41 7 -7 48
-4 53 34 56 49 4 48 22 -1 22 -36 0 -39 2 -37 28 1 24 5 27 40 30 67 6 66 22
-1 21 l-61 -2 2 -31z"/>
<path d="M2220 6620 c0 -5 7 -10 15 -10 8 0 15 5 15 10 0 6 -7 10 -15 10 -8 0
-15 -4 -15 -10z"/>
<path d="M1909 6570 c-1 -3 -2 -31 -3 -62 -1 -76 22 -81 26 -6 3 46 6 53 28
59 14 4 22 8 18 9 -16 5 -68 5 -69 0z"/>
<path d="M1996 6570 c-3 -5 -1 -120 3 -130 1 -3 6 2 11 10 5 8 8 33 5 56 -2
30 1 43 14 51 29 18 45 -1 45 -56 1 -34 5 -51 14 -51 8 0 12 17 12 50 0 38 4
52 19 59 28 15 45 -11 42 -64 -1 -24 3 -46 9 -50 14 -8 19 110 5 123 -8 8
-175 10 -179 2z"/>
<path d="M2222 6508 c0 -60 2 -70 12 -56 15 20 14 120 -1 125 -6 2 -10 -23
-11 -69z"/>
<path d="M2361 6561 c-52 -52 0 -138 70 -116 31 10 22 25 -11 19 -29 -6 -60 8
-60 27 0 5 20 9 45 9 40 0 45 2 45 23 0 31 -11 44 -42 52 -19 5 -32 1 -47 -14z
m66 -24 c-4 -12 -44 -18 -60 -9 -5 2 -1 12 9 23 13 14 21 16 36 8 11 -6 17
-16 15 -22z"/>
<path d="M2378 6292 l-57 -27 25 -60 c34 -82 38 -147 12 -191 -29 -50 -93
-110 -165 -157 -38 -24 -60 -44 -55 -51 52 -82 57 -86 82 -80 14 3 27 9 30 13
3 4 22 17 42 29 50 31 138 129 168 188 19 39 24 64 24 124 0 68 -8 132 -19
150 -2 3 -6 18 -9 33 -10 57 -16 59 -78 29z"/>
<path d="M3200 6218 c-32 -10 -56 -50 -65 -106 -8 -55 -42 -191 -54 -217 -27
-56 -51 -119 -51 -131 0 -8 -4 -14 -8 -14 -4 0 -18 -21 -31 -47 -24 -50 -101
-170 -136 -212 -91 -111 -254 -271 -274 -271 -5 0 -11 -3 -13 -7 -1 -5 -32
-32 -68 -61 -196 -161 -360 -327 -519 -528 -87 -110 -208 -304 -214 -344 -6
-33 21 -79 53 -92 14 -6 50 -9 80 -8 101 3 225 8 238 9 18 1 68 55 88 94 9 17
20 34 23 37 4 3 29 34 56 70 79 103 83 108 220 246 72 71 186 175 255 229 184
146 367 336 456 475 16 25 31 47 34 50 29 27 138 245 183 365 41 110 92 328
82 345 -3 5 -1 11 4 14 14 9 -5 66 -29 90 -18 18 -34 20 -152 22 -73 0 -144
-3 -158 -8z"/>
<path d="M4140 6214 c-44 -18 -78 -68 -86 -125 -3 -24 -8 -55 -10 -69 -3 -14
-7 -47 -10 -74 -2 -27 -6 -52 -9 -56 -3 -4 -7 -25 -10 -46 -16 -104 -121 -450
-147 -481 -6 -7 -8 -13 -5 -13 8 0 -62 -144 -126 -261 -41 -75 -48 -96 -52
-160 -10 -153 -19 -358 -19 -475 -1 -112 1 -123 24 -156 43 -63 68 -72 210
-71 69 0 181 1 249 3 223 4 307 54 417 245 38 66 117 146 177 179 26 14 49 26
52 26 3 0 6 0 8 1 59 18 150 24 198 13 13 -3 33 -7 45 -9 82 -12 205 -116 249
-211 66 -143 76 -160 113 -184 35 -24 43 -25 188 -24 130 0 155 3 184 20 58
34 70 71 64 198 -2 61 -6 167 -9 236 -2 69 -6 172 -9 230 -3 58 -8 173 -11
255 -12 318 -18 384 -45 483 -27 99 -70 191 -127 270 -49 69 -146 172 -162
172 -5 0 -11 3 -13 8 -7 16 -108 62 -167 76 -92 21 -1109 21 -1161 0z"/>
<path d="M6281 6209 c-36 -22 -53 -72 -37 -109 6 -14 13 -27 16 -30 3 -3 25
-32 49 -65 25 -33 50 -64 55 -70 6 -5 17 -22 25 -37 8 -16 18 -28 23 -28 4 0
8 -5 8 -11 0 -6 11 -25 25 -43 14 -18 25 -38 25 -44 0 -7 5 -12 10 -12 6 0 10
-4 10 -9 0 -5 19 -39 41 -77 54 -89 159 -297 202 -404 45 -107 107 -273 112
-297 2 -10 13 -45 23 -78 18 -53 41 -132 48 -160 1 -5 12 -50 23 -98 23 -91
38 -160 47 -212 11 -67 46 -123 78 -126 51 -5 189 -3 192 3 3 4 11 5 19 1 33
-12 86 8 105 39 21 34 20 52 -11 203 -26 129 -27 133 -33 153 -3 9 -7 28 -10
42 -4 23 -23 94 -62 230 -8 30 -17 60 -18 65 -2 6 -6 17 -9 25 -12 30 -49 136
-54 155 -3 11 -11 34 -19 52 -8 17 -14 37 -14 45 0 8 -4 18 -8 24 -5 5 -19 36
-32 69 -13 33 -47 110 -77 172 -29 62 -53 117 -53 122 0 5 -4 11 -9 13 -5 2
-23 31 -40 66 -17 34 -47 87 -66 117 -19 30 -35 59 -35 65 0 5 -4 10 -9 10 -5
0 -14 14 -21 30 -7 17 -16 30 -21 30 -5 0 -9 6 -9 13 0 7 -9 23 -20 35 -11 12
-20 24 -20 27 0 11 -71 100 -88 110 -9 5 -88 10 -174 11 -136 1 -162 -1 -187
-17z"/>
<path d="M1196 5924 l-38 -37 40 -40 40 -40 37 37 c40 40 44 40 92 -14 l22
-25 41 40 40 41 -39 38 -39 39 -38 -37 c-20 -20 -39 -36 -42 -36 -2 0 -19 16
-38 35 -18 19 -35 35 -37 35 -2 0 -21 -16 -41 -36z"/>
<path d="M5962 5493 c-9 -18 -8 -108 3 -338 3 -66 8 -172 10 -235 2 -63 7
-178 11 -255 3 -77 7 -171 8 -210 3 -95 31 -145 96 -171 33 -14 305 -8 342 7
43 18 46 42 19 162 -6 26 -15 66 -21 90 -5 23 -23 89 -41 147 -17 58 -33 116
-36 130 -3 14 -9 30 -13 35 -3 6 -17 39 -29 75 -12 36 -31 84 -42 107 -10 24
-19 45 -19 49 0 9 -139 286 -163 325 -12 19 -31 50 -42 67 -22 37 -68 44 -83
15z"/>
<path d="M3339 4665 c-93 -90 -218 -194 -338 -285 -42 -31 -61 -76 -48 -113
19 -56 34 -59 280 -55 222 4 224 4 251 29 33 31 35 43 42 209 3 74 6 162 8
195 4 86 -10 110 -72 121 -8 1 -63 -44 -123 -101z"/>
<path d="M4821 4480 c-29 -9 -59 -27 -68 -39 -8 -12 -26 -26 -39 -31 -22 -9
-24 -14 -18 -50 6 -36 3 -47 -25 -85 -18 -25 -30 -45 -28 -45 3 0 1 -16 -3
-36 -8 -36 7 -65 41 -76 11 -4 11 -11 1 -44 -16 -48 -17 -66 -7 -124 4 -25 9
-79 11 -120 2 -41 5 -84 7 -95 6 -39 38 -100 69 -132 27 -27 32 -42 36 -90 3
-50 0 -63 -22 -93 -36 -49 -43 -68 -49 -130 -3 -30 -14 -75 -25 -100 -11 -25
-24 -67 -27 -95 -10 -69 -37 -112 -107 -170 -34 -27 -79 -66 -101 -85 -82 -72
-92 -80 -100 -80 -5 0 -16 -7 -24 -16 -12 -12 -26 -14 -57 -9 -23 4 -84 8
-138 8 -134 1 -184 -33 -122 -82 17 -13 24 -28 22 -43 -3 -21 -22 -34 -117
-78 -22 -10 -31 -56 -16 -76 12 -17 17 -17 106 -1 52 9 108 19 124 22 82 14
151 29 260 57 66 16 127 31 135 33 8 2 32 11 53 19 20 9 37 14 37 11 0 -7 193
95 200 105 8 12 103 53 130 56 13 2 45 24 70 49 25 25 64 59 88 75 23 17 42
38 42 47 0 9 31 46 69 82 37 36 71 75 74 86 3 11 24 81 47 155 23 74 43 146
45 160 2 14 8 43 13 65 11 49 7 112 -10 143 -9 18 -9 33 1 71 11 45 10 56 -18
145 -16 53 -28 106 -25 118 2 13 6 34 10 48 30 129 13 163 -102 200 -91 29
-106 48 -125 154 -11 67 -14 70 -69 80 -14 2 -50 13 -80 24 -80 30 -111 32
-169 12z"/>
<path d="M7308 4165 c-3 -4 -43 -8 -89 -10 -46 -1 -96 -8 -111 -14 -29 -11
-66 -73 -62 -106 2 -22 12 -151 20 -255 6 -80 5 -423 -1 -505 -7 -108 -18
-206 -29 -270 -4 -22 -9 -58 -11 -80 -3 -22 -9 -58 -14 -80 -5 -22 -12 -51
-15 -65 -2 -14 -12 -54 -21 -90 -8 -36 -18 -73 -20 -83 -32 -140 -202 -565
-250 -627 -28 -35 -36 -95 -20 -135 22 -54 63 -71 175 -74 41 -1 84 -3 95 -5
25 -4 75 12 97 31 16 14 61 100 113 218 14 33 30 69 35 80 12 26 32 77 36 90
1 6 8 24 15 40 7 17 13 32 14 35 2 11 27 86 32 100 9 23 10 25 47 164 19 70
37 140 40 155 2 14 11 58 20 96 8 39 18 93 21 120 4 28 9 61 11 75 4 26 8 59
18 170 20 207 21 548 2 780 -11 132 -15 160 -26 180 -14 26 -68 63 -84 57 -8
-3 -18 -1 -23 4 -5 5 -12 7 -15 4z"/>
<path d="M6077 4120 c-51 -31 -62 -57 -61 -145 1 -82 11 -370 19 -530 3 -49 7
-146 10 -215 3 -69 7 -172 10 -230 2 -58 7 -166 10 -240 3 -74 8 -189 10 -255
11 -249 9 -236 44 -267 61 -55 120 -31 171 68 19 38 35 71 36 74 0 3 5 16 11
30 6 14 22 52 36 85 36 86 107 323 121 405 3 14 9 48 15 77 9 48 14 75 26 173
25 191 24 542 -1 805 -10 102 -18 128 -54 160 -20 18 -37 20 -199 21 -150 1
-180 -2 -204 -16z"/>
<path d="M5600 4119 c-30 -4 -63 -10 -72 -14 -23 -9 -58 -82 -52 -108 18 -81
25 -499 12 -647 -4 -41 -7 -75 -8 -75 -1 0 -3 -7 -5 -15 -18 -93 -30 -144 -45
-190 -20 -61 -87 -211 -98 -220 -4 -3 -8 -11 -10 -19 -3 -17 -83 -135 -94
-139 -4 -2 -8 -8 -8 -13 0 -14 -36 -55 -140 -159 -200 -201 -372 -278 -630
-282 -39 -1 -142 9 -180 18 -14 3 -36 7 -50 10 -60 12 -212 81 -286 130 -89
58 -189 147 -244 218 -39 50 -63 61 -85 39 -17 -17 -16 -12 -20 -118 -1 -44
-6 -144 -9 -223 -14 -295 -11 -316 46 -369 45 -42 46 -42 463 -58 50 -2 146
-6 215 -9 69 -3 181 -8 250 -11 69 -2 181 -7 250 -10 69 -3 176 -8 237 -10 62
-2 117 -6 122 -10 5 -3 12 -1 16 5 4 6 11 7 17 4 12 -7 61 -10 379 -19 218 -7
228 -6 268 14 41 21 93 71 98 94 1 7 6 29 11 49 5 20 8 60 6 90 -3 63 -13 283
-19 458 -3 69 -7 172 -10 230 -2 58 -7 166 -10 240 -11 276 -15 358 -20 470
-3 63 -7 171 -10 240 -11 297 -16 324 -68 372 -43 39 -104 50 -217 37z"/>
<path d="M3815 4077 c-47 -15 -111 -64 -133 -99 -31 -51 -42 -105 -45 -232 -4
-110 -2 -118 19 -141 13 -14 34 -25 48 -25 23 0 112 61 191 131 183 161 208
188 216 235 7 40 -9 80 -45 114 -25 22 -35 25 -124 26 -54 0 -111 -4 -127 -9z"/>
<path d="M2845 4062 c-1 -1 -18 -4 -37 -6 -38 -4 -107 -36 -144 -69 -25 -21
-80 -103 -82 -121 0 -5 -4 -12 -9 -15 -29 -21 -130 -277 -147 -371 -2 -14 -7
-32 -10 -40 -28 -79 -26 -417 5 -580 6 -30 12 -64 13 -75 29 -212 210 -633
312 -726 77 -70 171 -115 263 -125 25 -3 109 -7 185 -9 152 -4 179 2 210 50
18 27 21 60 31 298 3 73 7 177 10 232 2 55 7 163 10 240 8 192 13 308 21 455
3 69 7 166 9 215 2 50 6 155 10 235 12 287 12 294 -2 330 -17 44 -56 78 -97
85 -30 6 -545 3 -551 -3z"/>
<path d="M1845 4041 c-2 -1 -42 -4 -89 -5 -105 -3 -125 -17 -157 -115 -12 -36
-26 -71 -30 -77 -5 -6 -7 -13 -4 -16 3 -3 -1 -24 -9 -46 -9 -23 -13 -42 -10
-42 2 0 0 -8 -5 -17 -5 -10 -11 -31 -14 -48 -3 -16 -12 -68 -20 -115 -36 -199
-41 -458 -13 -710 11 -104 18 -155 22 -161 2 -4 6 -24 10 -45 3 -22 9 -55 14
-74 5 -19 12 -48 15 -65 3 -16 12 -55 20 -85 9 -30 18 -63 20 -72 8 -37 78
-234 101 -285 34 -78 39 -79 297 -87 62 -2 71 0 98 26 16 16 29 39 29 53 0 13
-22 79 -49 147 -44 110 -104 289 -116 343 -2 11 -13 62 -24 113 -11 51 -23
119 -27 150 -3 31 -8 60 -10 63 -7 12 -16 189 -17 319 0 144 10 250 35 360 5
25 12 56 14 70 8 41 43 150 74 232 42 109 38 147 -18 177 -20 11 -129 21 -137
12z"/>
<path d="M1913 1827 c-30 -16 -53 -50 -53 -80 0 -30 49 -121 119 -220 23 -32
41 -62 41 -67 0 -4 3 -10 8 -12 4 -1 27 -30 52 -63 117 -157 395 -445 503
-520 7 -5 56 -42 108 -81 122 -92 285 -193 429 -265 124 -61 141 -67 181 -56
50 13 59 44 65 205 5 143 5 148 -18 172 -13 14 -36 32 -53 40 -60 30 -220 124
-223 132 -2 4 -8 8 -13 8 -11 0 -177 118 -250 180 -66 54 -304 292 -339 338
-14 18 -33 43 -44 55 -10 12 -49 65 -87 119 -45 62 -79 100 -97 106 -15 5 -63
10 -107 12 -44 1 -108 3 -142 4 -35 1 -71 -2 -80 -7z"/>
<path d="M3151 1772 c-67 -32 -76 -114 -17 -165 128 -111 174 -132 222 -106
67 36 64 147 -5 218 -56 57 -145 80 -200 53z"/>
<path d="M3658 1760 c-82 -14 -115 -76 -111 -211 2 -110 3 -112 31 -165 28
-56 88 -105 154 -128 29 -11 64 -24 78 -29 27 -11 34 -13 65 -21 11 -3 45 -12
77 -20 59 -16 65 -17 163 -35 96 -16 142 -22 215 -25 37 -2 72 -6 78 -10 6 -3
13 -2 16 3 4 6 18 6 35 1 16 -4 32 -6 35 -3 3 3 48 7 100 9 53 2 122 8 153 13
32 5 74 12 93 15 41 7 50 9 150 35 243 64 556 225 696 359 43 41 13 129 -45
133 -9 1 -47 2 -86 4 -140 5 -372 15 -475 20 -58 3 -159 7 -225 10 -66 3 -172
7 -235 10 -63 2 -171 7 -240 10 -69 3 -170 7 -226 10 -56 3 -166 7 -245 10
-79 3 -160 7 -179 8 -19 2 -52 0 -72 -3z"/>
<path d="M6515 1616 c-34 -16 -68 -43 -105 -86 -82 -93 -96 -108 -177 -192
-42 -45 -79 -93 -87 -115 -13 -37 -14 -162 -2 -182 4 -5 2 -12 -4 -16 -6 -4
-8 -11 -4 -16 3 -5 8 -21 10 -36 11 -61 62 -103 124 -103 51 0 86 25 227 167
152 153 180 184 279 314 80 104 97 144 81 194 -23 72 -56 88 -187 91 -90 2
-112 -1 -155 -20z"/>
<path d="M5800 986 c-40 -23 -84 -49 -99 -58 -56 -36 -350 -175 -376 -178 -3
0 -10 -3 -17 -5 -137 -48 -318 -93 -438 -111 -19 -2 -46 -6 -59 -9 -102 -18
-430 -25 -576 -12 -175 15 -327 44 -519 98 -104 30 -111 30 -142 15 -60 -28
-69 -53 -69 -204 0 -133 0 -134 27 -157 28 -24 108 -51 248 -84 251 -59 398
-75 690 -75 113 0 237 3 275 7 154 18 170 20 225 31 19 4 49 9 65 11 17 2 30
4 30 5 0 1 27 8 60 16 33 7 70 16 82 19 51 12 244 75 318 104 141 56 407 194
448 232 l38 37 -4 134 c-3 73 -6 133 -7 133 -1 0 -3 8 -5 18 -4 20 -50 66 -68
68 -7 1 -22 3 -34 4 -11 1 -53 -16 -93 -39z"/>
</g>
</svg>
