<svg xmlns="http://www.w3.org/2000/svg" xmlns:xlink="http://www.w3.org/1999/xlink" width="360" height="204" viewBox="0 0 360 204">
  <defs>
    <linearGradient id="linear-gradient" x1="119" y1="165" x2="147" y2="165" gradientUnits="userSpaceOnUse">
      <stop offset="0" stop-color="#9aa0a6" stop-opacity="0"/>
      <stop offset="0.15" stop-color="#9aa0a6" stop-opacity="0.025"/>
      <stop offset="0.306" stop-color="#9aa0a6" stop-opacity="0.1"/>
      <stop offset="0.464" stop-color="#9aa0a6" stop-opacity="0.225"/>
      <stop offset="0.624" stop-color="#9aa0a6" stop-opacity="0.4"/>
      <stop offset="0.786" stop-color="#9aa0a6" stop-opacity="0.626"/>
      <stop offset="0.946" stop-color="#9aa0a6" stop-opacity="0.898"/>
      <stop offset="1" stop-color="#9aa0a6"/>
    </linearGradient>
    <linearGradient id="linear-gradient-2" x1="67" y1="165" x2="115" y2="165" xlink:href="#linear-gradient"/>
    <linearGradient id="linear-gradient-3" x1="107.557" y1="61.557" x2="119.557" y2="49.557" gradientUnits="userSpaceOnUse">
      <stop offset="0" stop-color="#f29900"/>
      <stop offset="0.086" stop-color="#f29900" stop-opacity="0.84"/>
      <stop offset="0.218" stop-color="#f29900" stop-opacity="0.619"/>
      <stop offset="0.352" stop-color="#f29900" stop-opacity="0.43"/>
      <stop offset="0.486" stop-color="#f29900" stop-opacity="0.275"/>
      <stop offset="0.617" stop-color="#f29900" stop-opacity="0.154"/>
      <stop offset="0.748" stop-color="#f29900" stop-opacity="0.069"/>
      <stop offset="0.876" stop-color="#f29900" stop-opacity="0.017"/>
      <stop offset="1" stop-color="#f29900" stop-opacity="0"/>
    </linearGradient>
    <linearGradient id="linear-gradient-4" x1="204.291" y1="55.241" x2="213.766" y2="45.766" gradientUnits="userSpaceOnUse">
      <stop offset="0" stop-color="#188038"/>
      <stop offset="1" stop-color="#188038" stop-opacity="0"/>
    </linearGradient>
  </defs>
  <title>site_sec_B_06</title>
  <g style="isolation: isolate">
    <g id="Content">
      <g>
        <rect x="119" y="162" width="28" height="6" fill="url(#linear-gradient)" style="mix-blend-mode: multiply"/>
        <rect x="67" y="162" width="48" height="6" fill="url(#linear-gradient-2)" style="mix-blend-mode: multiply"/>
        <rect width="360" height="204" fill="none"/>
        <g>
          <g>
            <g>
              <g>
                <path d="M134.551,90.521l-30.91-8.282a6,6,0,0,0-7.348,4.243l-.518,1.932,42.5,11.388.518-1.932A6,6,0,0,0,134.551,90.521Z" fill="#5f6368"/>
                <path d="M78.694,152.165a6,6,0,0,0,4.243,7.348l30.91,8.282a6,6,0,0,0,7.348-4.243l.518-1.932-42.5-11.388Z" fill="#5f6368"/>
                <rect x="76.744" y="103.017" width="64" height="44" transform="translate(-40.159 197.699) rotate(-75)" fill="#e8eaed"/>
              </g>
              <rect x="117.432" y="83.727" width="1" height="14" rx="0.5" ry="0.5" transform="translate(236.091 0.296) rotate(105)" fill="#3c4043"/>
            </g>
            <g>
              <rect x="99.037" y="99.213" width="12" height="2" rx="1" ry="1" transform="matrix(0.966, 0.259, -0.259, 0.966, 29.516, -23.771)" fill="#fbbc04"/>
              <rect x="97.144" y="107.597" width="32" height="2" rx="1" ry="1" transform="translate(31.962 -25.583) rotate(15)" fill="#bdc1c6"/>
              <rect x="95.795" y="111.839" width="20" height="2" rx="1" ry="1" transform="translate(32.81 -23.537) rotate(15)" fill="#fff"/>
            </g>
            <rect x="87.132" y="123.069" width="44" height="1" transform="translate(35.7 -24.035) rotate(15)" fill="#bdc1c6"/>
            <g>
              <rect x="89.912" y="129.933" width="20" height="2" rx="1" ry="1" transform="translate(37.292 -21.398) rotate(15)" fill="#bdc1c6"/>
              <rect x="88.12" y="137.54" width="34" height="2" rx="1" ry="1" transform="translate(39.439 -22.487) rotate(15)" fill="#bdc1c6"/>
              <rect x="86.738" y="142.042" width="24" height="2" rx="1" ry="1" transform="translate(40.386 -20.681) rotate(15)" fill="#bdc1c6"/>
            </g>
          </g>
          <g>
            <path d="M138,36H118a14,14,0,0,0,0,28v8l8-8h12a14,14,0,0,0,0-28Z" fill="#fbbc04"/>
            <g>
              <polygon points="128 41 119 57 137 57 128 41 128 41" fill="none" stroke="#fff" stroke-linecap="round" stroke-linejoin="round"/>
              <g>
                <rect x="127.5" y="46.5" width="1" height="6" rx="0.5" ry="0.5" fill="#fff"/>
                <circle cx="128" cy="54.5" r="0.5" fill="#fff"/>
              </g>
            </g>
            <path d="M106,48a13.922,13.922,0,0,1,3.165-8.835A13.983,13.983,0,0,0,118,64v8l2-2V62A14.041,14.041,0,0,1,106,48Z" fill="url(#linear-gradient-3)"/>
          </g>
          <g>
            <g>
              <path d="M224,30H208a12,12,0,0,0,0,24h8l8,8V54a12,12,0,0,0,0-24Z" fill="#34a853"/>
              <g>
                <rect x="207" y="35" width="18" height="14" rx="1" ry="1" fill="#fff"/>
                <polygon points="208 36 216 42 224 36 208 36" fill="#34a853"/>
                <polygon points="208 37.5 216 43.5 224 37.5 224 48 208 48 208 37.5" fill="#34a853"/>
              </g>
              <path d="M218,52h-8a11.972,11.972,0,0,1-9.41-19.41A11.98,11.98,0,0,0,208,54h8l8,8V58Z" fill="url(#linear-gradient-4)"/>
            </g>
            <circle cx="198" cy="33" r="6" fill="#ea4335"/>
            <path d="M238.811,24.34,240,24l-1.189-.34a2.143,2.143,0,0,1-1.472-1.472L237,21l-.34,1.189a2.143,2.143,0,0,1-1.472,1.472L234,24l1.189.34a2.143,2.143,0,0,1,1.472,1.472L237,27l.34-1.189A2.143,2.143,0,0,1,238.811,24.34Z" fill="#fbbc04"/>
            <path d="M252.019,34.566,254,34l-1.981-.566a3.571,3.571,0,0,1-2.453-2.453L249,29l-.566,1.981a3.571,3.571,0,0,1-2.453,2.453L244,34l1.981.566a3.571,3.571,0,0,1,2.453,2.453L249,39l.566-1.981A3.571,3.571,0,0,1,252.019,34.566Z" fill="#fbbc04"/>
            <circle cx="250" cy="19" r="1" fill="#fbbc04"/>
            <circle cx="187" cy="51" r="1" fill="#fbbc04"/>
            <path d="M194.811,59.34,196,59l-1.189-.34a2.143,2.143,0,0,1-1.472-1.472L193,56l-.34,1.189a2.143,2.143,0,0,1-1.472,1.472L190,59l1.189.34a2.143,2.143,0,0,1,1.472,1.472L193,62l.34-1.189A2.143,2.143,0,0,1,194.811,59.34Z" fill="#fbbc04"/>
          </g>
          <g>
            <g>
              <rect x="139" y="74" width="142" height="94" rx="8" ry="8" fill="#5f6368"/>
              <rect x="150" y="80" width="116" height="82" fill="#fff"/>
              <rect x="144" y="115" width="1" height="12" rx="0.5" ry="0.5" fill="#3c4043"/>
              <circle cx="273" cy="121" r="3" fill="none" stroke="#3c4043" stroke-miterlimit="10"/>
            </g>
            <rect x="150" y="80" width="40" height="82" fill="#e8eaed"/>
            <rect x="156" y="93" width="28" height="3" rx="1.5" ry="1.5" fill="#bdc1c6"/>
            <rect x="156" y="118" width="28" height="2" rx="1" ry="1" fill="#fff"/>
            <rect x="156" y="128" width="28" height="2" rx="1" ry="1" fill="#fff"/>
            <rect x="156" y="138" width="28" height="2" rx="1" ry="1" fill="#fff"/>
            <rect x="156" y="104" width="28" height="6" rx="3" ry="3" fill="#bdc1c6"/>
            <rect x="156" y="148" width="28" height="2" rx="1" ry="1" fill="#fff"/>
            <rect x="196" y="118" width="64" height="2" rx="1" ry="1" fill="#e8eaed"/>
            <rect x="208" y="105.5" width="36" height="3" rx="1.5" ry="1.5" fill="#34a853"/>
            <rect x="196" y="128" width="64" height="2" rx="1" ry="1" fill="#e8eaed"/>
            <rect x="196" y="138" width="32" height="2" rx="1" ry="1" fill="#e8eaed"/>
            <g>
              <circle cx="199" cy="107" r="3" fill="#34a853"/>
              <rect x="193" y="101" width="12" height="12" fill="none"/>
            </g>
            <path d="M259,89v6H197V89h62m0-1H197a1,1,0,0,0-1,1v6a1,1,0,0,0,1,1h62a1,1,0,0,0,1-1V89a1,1,0,0,0-1-1Z" fill="#e8eaed"/>
            <path d="M211,149v4H197v-4h14m0-1H197a1,1,0,0,0-1,1v4a1,1,0,0,0,1,1h14a1,1,0,0,0,1-1v-4a1,1,0,0,0-1-1Z" fill="#e8eaed"/>
            <path d="M231,149v4H217v-4h14m0-1H217a1,1,0,0,0-1,1v4a1,1,0,0,0,1,1h14a1,1,0,0,0,1-1v-4a1,1,0,0,0-1-1Z" fill="#e8eaed"/>
            <path d="M251,149v4H237v-4h14m0-1H237a1,1,0,0,0-1,1v4a1,1,0,0,0,1,1h14a1,1,0,0,0,1-1v-4a1,1,0,0,0-1-1Z" fill="#e8eaed"/>
          </g>
        </g>
        <rect width="360" height="204" fill="none"/>
        <g>
          <line x1="100" y1="73" x2="100" y2="63" fill="none" stroke="#dadce0" stroke-linecap="round" stroke-miterlimit="10" stroke-width="2"/>
          <line x1="90.808" y1="76.808" x2="83.737" y2="69.737" fill="none" stroke="#dadce0" stroke-linecap="round" stroke-miterlimit="10" stroke-width="2"/>
          <line x1="87" y1="86" x2="77" y2="86" fill="none" stroke="#dadce0" stroke-linecap="round" stroke-miterlimit="10" stroke-width="2"/>
        </g>
        <g>
          <line x1="292" y1="76" x2="302" y2="76" fill="none" stroke="#dadce0" stroke-linecap="round" stroke-miterlimit="10" stroke-width="2"/>
          <line x1="288.192" y1="66.808" x2="295.263" y2="59.737" fill="none" stroke="#dadce0" stroke-linecap="round" stroke-miterlimit="10" stroke-width="2"/>
          <line x1="279" y1="63" x2="279" y2="53" fill="none" stroke="#dadce0" stroke-linecap="round" stroke-miterlimit="10" stroke-width="2"/>
        </g>
      </g>
    </g>
  </g>
</svg>
