<svg xmlns="http://www.w3.org/2000/svg" xmlns:xlink="http://www.w3.org/1999/xlink" width="360" height="204" viewBox="0 0 360 204">
  <defs>
    <linearGradient id="linear-gradient" x1="108" y1="165" x2="180" y2="165" gradientUnits="userSpaceOnUse">
      <stop offset="0" stop-color="#9aa0a6" stop-opacity="0"/>
      <stop offset="0.15" stop-color="#9aa0a6" stop-opacity="0.025"/>
      <stop offset="0.306" stop-color="#9aa0a6" stop-opacity="0.1"/>
      <stop offset="0.464" stop-color="#9aa0a6" stop-opacity="0.225"/>
      <stop offset="0.624" stop-color="#9aa0a6" stop-opacity="0.4"/>
      <stop offset="0.786" stop-color="#9aa0a6" stop-opacity="0.626"/>
      <stop offset="0.946" stop-color="#9aa0a6" stop-opacity="0.898"/>
      <stop offset="1" stop-color="#9aa0a6"/>
    </linearGradient>
    <linearGradient id="linear-gradient-2" x1="242" y1="149" x2="284" y2="149" xlink:href="#linear-gradient"/>
    <linearGradient id="linear-gradient-3" x1="34" y1="149" x2="76" y2="149" xlink:href="#linear-gradient"/>
  </defs>
  <title>site_sec_B_07</title>
  <g style="isolation: isolate">
    <g id="Content">
      <g>
        <rect x="108" y="162" width="72" height="6" fill="url(#linear-gradient)" style="mix-blend-mode: multiply"/>
        <rect x="242" y="146" width="42" height="6" fill="url(#linear-gradient-2)" style="mix-blend-mode: multiply"/>
        <rect x="34" y="146" width="42" height="6" fill="url(#linear-gradient-3)" style="mix-blend-mode: multiply"/>
        <rect width="360" height="204" fill="none"/>
        <g>
          <path id="Shield_Shape_512dp" data-name="Shield Shape 512dp" d="M180,168c37.831-17.841,51.334-50.124,54.791-73.456A140.136,140.136,0,0,0,236,78.769V39.257L180,22.586,124,39.257V78.769a140.209,140.209,0,0,0,1.209,15.776C128.667,117.876,142.169,150.159,180,168Z" fill="#4285f4"/>
          <g id="PRIVACY_512dp" data-name="PRIVACY 512dp">
            <path d="M151.226,112.687c0-7.73,13.376-14.019,28.773-14.3,15.4.281,28.773,6.57,28.773,14.3v.808a37.127,37.127,0,1,0-57.547,0Z" fill="#185abc"/>
            <path d="M208.773,112.687c0-7.73-13.376-14.019-28.773-14.3-15.4.281-28.773,6.57-28.773,14.3v.808a37.125,37.125,0,0,0,57.547,0Z" fill="#fff"/>
            <path d="M165.149,76.729A14.851,14.851,0,1,1,180,91.58,14.855,14.855,0,0,1,165.149,76.729Z" fill="#fff"/>
          </g>
        </g>
        <g>
          <path id="Shield_Shape_512dp-2" data-name="Shield Shape 512dp" d="M76,152c24.32-11.469,33-32.223,35.223-47.222A90.087,90.087,0,0,0,112,94.637v-25.4L76,58.519,40,69.237v25.4a90.134,90.134,0,0,0,.777,10.141C43,119.777,51.68,140.531,76,152Z" fill="#4285f4"/>
          <g id="SECURITY_512dp" data-name="SECURITY 512dp">
            <path d="M89.127,94.454H86.939V89.57a10.939,10.939,0,1,0-21.878,0v4.883H62.873A4.194,4.194,0,0,0,58.7,98.639v22.722a4.194,4.194,0,0,0,4.177,4.186H89.127a4.194,4.194,0,0,0,4.177-4.186V98.639A4.194,4.194,0,0,0,89.127,94.454ZM69.238,89.57a6.762,6.762,0,1,1,13.525,0v4.883H69.238Z" fill="#fff"/>
            <path d="M80.575,108.243a4.575,4.575,0,1,0-6.564,4.121v4.631h3.978v-4.631A4.575,4.575,0,0,0,80.575,108.243Z" fill="#185abc"/>
          </g>
        </g>
        <g>
          <path id="Shield_Shape_512dp-3" data-name="Shield Shape 512dp" d="M284,152c24.32-11.469,33-32.223,35.223-47.222A90.087,90.087,0,0,0,320,94.637v-25.4L284,58.519,248,69.237v25.4a90.134,90.134,0,0,0,.777,10.141C251,119.777,259.68,140.531,284,152Z" fill="#4285f4"/>
          <g id="CONTROL_512dp" data-name="CONTROL  512dp">
            <path d="M268.287,89.348a6.341,6.341,0,0,1,6.422-6.365h18.348a6.365,6.365,0,1,1,0,12.729H274.709A6.341,6.341,0,0,1,268.287,89.348ZM299.713,116.2a6.341,6.341,0,0,0-6.422-6.365H274.942a6.365,6.365,0,1,0,0,12.729h18.349A6.341,6.341,0,0,0,299.713,116.2Z" fill="#185abc"/>
            <path d="M302.3,89.149A9.145,9.145,0,1,1,293.149,80,9.149,9.149,0,0,1,302.3,89.149Zm-27.448,17.7A9.149,9.149,0,1,0,284,116,9.117,9.117,0,0,0,274.851,106.851Z" fill="#fff"/>
          </g>
        </g>
      </g>
    </g>
  </g>
</svg>
