<svg xmlns="http://www.w3.org/2000/svg" xmlns:xlink="http://www.w3.org/1999/xlink" width="360" height="204" viewBox="0 0 360 204">
  <defs>
    <linearGradient id="linear-gradient" x1="11" y1="165" x2="47" y2="165" gradientUnits="userSpaceOnUse">
      <stop offset="0" stop-color="#9aa0a6" stop-opacity="0"/>
      <stop offset="0.15" stop-color="#9aa0a6" stop-opacity="0.025"/>
      <stop offset="0.306" stop-color="#9aa0a6" stop-opacity="0.1"/>
      <stop offset="0.464" stop-color="#9aa0a6" stop-opacity="0.225"/>
      <stop offset="0.624" stop-color="#9aa0a6" stop-opacity="0.4"/>
      <stop offset="0.786" stop-color="#9aa0a6" stop-opacity="0.626"/>
      <stop offset="0.946" stop-color="#9aa0a6" stop-opacity="0.898"/>
      <stop offset="1" stop-color="#9aa0a6"/>
    </linearGradient>
    <linearGradient id="linear-gradient-2" x1="233" y1="121" x2="265" y2="121" xlink:href="#linear-gradient"/>
    <clipPath id="clip-path">
      <rect x="50" y="80" width="116" height="82" fill="none"/>
    </clipPath>
    <clipPath id="clip-path-2">
      <rect x="83" y="93" width="50" height="51" fill="none"/>
    </clipPath>
    <clipPath id="clip-path-3">
      <rect x="265" y="65" width="32" height="34" fill="none"/>
    </clipPath>
    <linearGradient id="linear-gradient-3" x1="156.029" y1="90.971" x2="175.5" y2="71.5" gradientUnits="userSpaceOnUse">
      <stop offset="0" stop-color="#1967d2"/>
      <stop offset="1" stop-color="#1967d2" stop-opacity="0"/>
    </linearGradient>
    <linearGradient id="linear-gradient-4" x1="248.393" y1="54.607" x2="260.5" y2="42.5" gradientUnits="userSpaceOnUse">
      <stop offset="0" stop-color="#188038"/>
      <stop offset="1" stop-color="#188038" stop-opacity="0"/>
    </linearGradient>
  </defs>
  <title>site_sec_D</title>
  <g style="isolation: isolate">
    <g id="Content">
      <g>
        <rect x="11" y="162" width="36" height="6" fill="url(#linear-gradient)" style="mix-blend-mode: multiply"/>
        <g>
          <rect x="39" y="74" width="142" height="94" rx="8" ry="8" fill="#5f6368"/>
          <rect x="50" y="80" width="116" height="82" fill="#fff"/>
          <rect x="44" y="115" width="1" height="12" rx="0.5" ry="0.5" fill="#3c4043"/>
          <circle cx="173" cy="121" r="3" fill="none" stroke="#3c4043" stroke-miterlimit="10"/>
        </g>
        <rect x="233" y="118" width="32" height="6" fill="url(#linear-gradient-2)" style="mix-blend-mode: multiply"/>
        <g>
          <g>
            <path d="M297,44H265a6,6,0,0,0-6,6v2h44V50A6,6,0,0,0,297,44Z" fill="#5f6368"/>
            <path d="M259,118a6,6,0,0,0,6,6h32a6,6,0,0,0,6-6v-2H259Z" fill="#5f6368"/>
            <rect x="259" y="52" width="44" height="64" fill="#e8eaed"/>
          </g>
          <rect x="280.5" y="41.5" width="1" height="14" rx="0.5" ry="0.5" transform="translate(329.5 -232.5) rotate(90)" fill="#3c4043"/>
        </g>
        <g clip-path="url(#clip-path)">
          <g>
            <g>
              <rect x="16" y="90" width="56" height="64" fill="#e8eaed"/>
              <rect x="19" y="93" width="50" height="51" fill="#34a853"/>
            </g>
            <g>
              <rect x="80" y="90" width="56" height="64" fill="#e8eaed"/>
              <rect x="83" y="93" width="50" height="51" fill="#4285f4"/>
              <g clip-path="url(#clip-path-2)">
                <circle cx="113" cy="105" r="5" fill="none" stroke="#fbbc04" stroke-miterlimit="10" stroke-width="2"/>
                <path d="M85.471,113a8.47,8.47,0,0,1,7.864,5.4A5.563,5.563,0,0,1,95.4,118a5.668,5.668,0,0,1,5.6,5H77.127A8.688,8.688,0,0,1,77,121.571,8.521,8.521,0,0,1,85.471,113Z" fill="#fff"/>
                <path d="M141,136a8.477,8.477,0,0,0-8.379-8.571,8.186,8.186,0,0,0-4.2,1.161,9.987,9.987,0,0,0-8.371-4.59,10.09,10.09,0,0,0-9.68,7.534,6.541,6.541,0,0,0-2.889-.677A6.73,6.73,0,0,0,101,136Z" fill="#fff"/>
              </g>
            </g>
            <g>
              <rect x="144" y="90" width="56" height="64" fill="#e8eaed"/>
              <rect x="147" y="93" width="50" height="51" fill="#fbbc04"/>
            </g>
          </g>
        </g>
        <g>
          <rect x="263" y="63" width="36" height="42" fill="#fff"/>
          <rect x="265" y="65" width="32" height="34" fill="#4285f4"/>
          <g clip-path="url(#clip-path-3)">
            <g>
              <circle cx="284" cy="73" r="3" fill="none" stroke="#fbbc04" stroke-miterlimit="10" stroke-width="1.25"/>
              <path d="M267.294,79a5.293,5.293,0,0,1,4.915,3.238A3.6,3.6,0,0,1,273.5,82a3.494,3.494,0,0,1,3.5,3H262.079a5.01,5.01,0,0,1-.079-.857A5.22,5.22,0,0,1,267.294,79Z" fill="#fff"/>
              <path d="M303,93a5.585,5.585,0,0,0-5.446-5.714,5.221,5.221,0,0,0-2.729.774A6.455,6.455,0,0,0,289.384,85a6.591,6.591,0,0,0-6.292,5.022,4.165,4.165,0,0,0-1.878-.451A4.4,4.4,0,0,0,277,93Z" fill="#fff"/>
            </g>
          </g>
        </g>
        <g>
          <line x1="313" y1="44" x2="319" y2="44" fill="none" stroke="#dadce0" stroke-linecap="round" stroke-miterlimit="10" stroke-width="2"/>
          <line x1="310.071" y1="36.929" x2="314.314" y2="32.686" fill="none" stroke="#dadce0" stroke-linecap="round" stroke-miterlimit="10" stroke-width="2"/>
          <line x1="303" y1="34" x2="303" y2="28" fill="none" stroke="#dadce0" stroke-linecap="round" stroke-miterlimit="10" stroke-width="2"/>
        </g>
        <rect width="360" height="204" fill="none"/>
        <g>
          <path d="M191,47.542a32,32,0,0,1,41.015-19.126" fill="none" stroke="#dadce0" stroke-linecap="round" stroke-linejoin="round" stroke-width="2"/>
          <polygon points="231.586 32.518 234.323 25 238.593 30.811 231.586 32.518" fill="none" stroke="#dadce0" stroke-linecap="round" stroke-linejoin="round" stroke-width="2"/>
        </g>
        <g id="PRIVACY_512dp" data-name="PRIVACY 512dp">
          <path d="M154.4,88.644c0-5,8.646-9.062,18.6-9.244,9.954.182,18.6,4.247,18.6,9.244v.522a24,24,0,1,0-37.2,0Z" fill="#4285f4"/>
          <path d="M191.6,88.644c0-5-8.646-9.062-18.6-9.244-9.954.182-18.6,4.247-18.6,9.244v.522a24,24,0,0,0,37.2,0Z" fill="#fff"/>
          <circle cx="173" cy="65.4" r="9.6" fill="#fff"/>
        </g>
        <path d="M178,93a24,24,0,0,1-19.285-38.285,24,24,0,1,0,33.57,33.57A23.891,23.891,0,0,1,178,93Z" opacity="0.5" fill="url(#linear-gradient-3)" style="mix-blend-mode: multiply"/>
        <g id="PRIVACY_512dp-2" data-name="PRIVACY 512dp">
          <path d="M247.375,53.153c0-3.123,5.4-5.664,11.625-5.778,6.221.114,11.625,2.654,11.625,5.778v.326a15,15,0,1,0-23.25,0Z" fill="#34a853"/>
          <path d="M270.625,53.153c0-3.123-5.4-5.664-11.625-5.778-6.221.114-11.625,2.654-11.625,5.778v.326a15,15,0,0,0,23.25,0Z" fill="#fff"/>
          <circle cx="259" cy="38.625" r="6" fill="#fff"/>
        </g>
        <path d="M262,56a14.98,14.98,0,0,1-11.988-23.988,14.986,14.986,0,1,0,20.977,20.977A14.912,14.912,0,0,1,262,56Z" opacity="0.5" fill="url(#linear-gradient-4)" style="mix-blend-mode: multiply"/>
      </g>
    </g>
  </g>
</svg>
